<?xml version="1.0" standalone="no"?>
<!DOCTYPE svg PUBLIC "-//W3C//DTD SVG 1.1//EN" "http://www.w3.org/Graphics/SVG/1.1/DTD/svg11.dtd" >
<svg xmlns="http://www.w3.org/2000/svg">
<metadata>
Created by FontPrep 20130207 at Wed Jun 22 20:47:17 2016
 By Asim Craft
Copyright (c) 2013 by Intelligent Design - Kostas Bartsokas. All rights reserved.
</metadata>
<defs>
<font id="0ec07cbb177fe077af6f444ae34432e8" horiz-adv-x='1024' >
  <font-face 
    font-family="ZonaBlack-BlackItalic"
    font-weight="400"
    font-style="italic"
    font-stretch="normal"
    units-per-em="2048"
    panose-1="2 11 10 3 9 5 0 9 0 4"
    ascent="1649"
    descent="-399"
    x-height="1116"
    cap-height="1444"
    bbox="-434 -406 2642 1909"
    underline-thickness="40"
    underline-position="-231"
    unicode-range="U+000D-FB04"
  />
<missing-glyph 
 />
    <glyph glyph-name="f_igrave" unicode="f&#xec;" horiz-adv-x="1384" 
d="M1096 1342q0 1 -2 1h-2q-189 0 -246.5 -65t-77.5 -162h725l-215 -1116h-387l156 811h-338l-158 -817q-35 -176 -152 -270.5t-253 -94.5t-216 23l58 295h16q107 0 133.5 38t37.5 85t26 118l121 623h-129l59 305h129l16 84q34 175 151 271t156 96l441 -2q90 -2 178 -2
l133 -357h-227l-131 135q-2 0 -2 1z" />
    <glyph glyph-name="f_f" unicode="ff" horiz-adv-x="1654" 
d="M1628 1217.5q-32 -29.5 -47 -101.5h252l-59 -305h-252l-150 -778q-36 -178 -152.5 -271.5t-254.5 -93.5q-137 0 -215 23l57 295h18q107 0 133.5 37.5t38 85t25.5 118.5l113 584h-439l-157 -817q-35 -175 -151.5 -270t-252.5 -95t-217 23l57 295h17q107 0 133.5 38
t37.5 85t25 118l121 623h-129l60 305h129l8 35q34 175 151 271t288.5 96t258.5 -50l-53 -274q-106 8 -148 8q-73 0 -89 -15.5t-29 -70.5h438l16 84q34 175 151 271t286 96t264 -49l-56 -275q-46 4 -121 4q-74 0 -106 -29.5z" />
    <glyph glyph-name="f_i" unicode="fi" horiz-adv-x="1441" 
d="M1319 1614q88 0 144.5 -56.5t56.5 -140.5q-8 -99 -73.5 -163t-152.5 -64q-88 0 -143 58t-54 124q2 110 68 176t154 66zM915 1247q-38 0 -73 -9t-54.5 -26.5t-26.5 -42t-13 -53.5h725l-216 -1116h-387l156 811h-338l-158 -817q-35 -176 -152 -270.5t-252 -94.5t-216 23
l57 295h17q106 0 135.5 42.5t60.5 198.5l121 623h-129l59 305h129l17 84q35 177 151.5 272t287 95t261.5 -49l-55 -275q-69 4 -107 4z" />
    <glyph glyph-name="f_l" unicode="fl" horiz-adv-x="1441" 
d="M1090 1154q0 67 -36 88.5t-86 21.5q-94 0 -145.5 -30.5t-66.5 -117.5h248l-60 -305h-248l-157 -817q-35 -175 -151.5 -270t-252.5 -95t-217 23l57 295h17q107 0 133.5 38t37.5 85t25 118l121 623h-129l60 305h129q61 312 278 381.5t335 69.5q228 0 371.5 -80.5
t143.5 -257.5q0 -22 -8 -66.5t-21.5 -120t-39 -210t-64.5 -337t-94 -495.5h-387q207 1087 207 1154z" />
    <glyph glyph-name="f_f_i" unicode="ffi" horiz-adv-x="2269" 
d="M2198 1614q88 0 144 -56.5t56 -140.5q-8 -98 -72.5 -162.5t-152.5 -64.5t-143.5 58t-54.5 124q2 111 68.5 176.5t154.5 65.5zM1628 1217.5q-32 -29.5 -47 -101.5h770l-215 -1116h-387l156 811h-383l-150 -778q-36 -178 -152.5 -271.5t-254.5 -93.5q-137 0 -215 23l57 295
h18q107 0 133.5 37.5t38 85t25.5 118.5l113 584h-439l-157 -817q-35 -175 -151.5 -270t-252.5 -95t-217 23l57 295h17q107 0 133.5 38t37.5 85t25 118l121 623h-129l60 305h129l8 35q34 175 151 271t288.5 96t258.5 -50l-53 -274q-106 8 -148 8q-73 0 -89 -15.5t-29 -70.5
h438l16 84q34 175 151 271t286 96t264 -49l-56 -275q-46 4 -121 4q-74 0 -106 -29.5z" />
    <glyph glyph-name="f_f_l" unicode="ffl" horiz-adv-x="2269" 
d="M783.5 1185.5q-18.5 -16.5 -27.5 -69.5h438q39 198 200.5 324.5t444.5 126.5q321 0 402 -127t81 -228q0 -26 -10 -94l-217 -1118h-387l195 1006q12 68 12 134q0 124 -135 124q-80 0 -132 -30.5t-67 -117.5h248l-60 -305h-247l-150 -778q-36 -178 -152.5 -271.5
t-254.5 -93.5q-137 0 -215 23l57 295h18q107 0 133.5 37.5t38 85t25.5 118.5l113 584h-439l-157 -817q-35 -175 -151.5 -270t-252.5 -95t-217 23l57 295h17q107 0 133.5 38t37.5 85t25 118l121 623h-129l60 305h129l8 35q38 173 155.5 270t286.5 97t256 -50l-53 -274
q-106 8 -163 8t-75.5 -16.5z" />
    <glyph glyph-name=".notdef" 
 />
    <glyph glyph-name=".null" horiz-adv-x="0" 
 />
    <glyph glyph-name=".null" horiz-adv-x="0" 
 />
    <glyph glyph-name="nonmarkingreturn" unicode="&#xd;" horiz-adv-x="567" 
 />
    <glyph glyph-name="space" unicode=" " horiz-adv-x="567" 
 />
    <glyph glyph-name="exclam" unicode="!" horiz-adv-x="663" 
d="M312 -20q-90 0 -144.5 56t-53.5 122q2 110 67 176.5t154 66.5t145.5 -56t56.5 -140q-8 -98 -71.5 -161.5t-153.5 -63.5zM246 532l112 910h400l-240 -910h-272z" />
    <glyph glyph-name="quotedbl" unicode="&#x22;" horiz-adv-x="1099" 
d="M373 1434h418l-404 -736h-203zM899 1434h418l-404 -736h-204z" />
    <glyph glyph-name="numbersign" unicode="#" horiz-adv-x="1445" 
d="M995 842h-225l-80 -226h225zM1587 1161l-63 -319h-248l-80 -226h221l-61 -319h-275l-112 -313h-281l113 313h-226l-112 -313h-283l115 313h-197l62 319h248l81 226h-223l64 319h276l103 287h280l-102 -287h225l102 287h281l-102 -287h194z" />
    <glyph glyph-name="dollar" unicode="$" horiz-adv-x="1363" 
d="M956 428q0 52 -90 84l-39 -199q44 4 74.5 24.5t42.5 40t12 50.5zM694 1017.5q0 -26.5 19.5 -46t70.5 -37.5l39 196q-82 -8 -105.5 -47t-23.5 -65.5zM1372 498q0 -98 -47 -192.5t-174.5 -201t-386.5 -122.5l-25 -127h-164l25 127q-220 6 -330 53t-178 84l203 295
q170 -88 369 -101l47 244q-218 61 -291.5 113.5t-106 112t-32.5 157.5t45 193.5t167 204t394 124.5l16 80h164l-16 -84q205 -18 436 -115l-221 -303q-159 63 -281 80l-45 -229q217 -54 295 -115t107.5 -120.5t29.5 -157.5z" />
    <glyph glyph-name="percent" unicode="%" horiz-adv-x="1841" 
d="M1806 1436l-1267 -1436h-277l1268 1436h276zM1416 219q68 0 114.5 66.5t46.5 131.5q0 66 -25.5 101t-63.5 35q-69 0 -115 -68t-46 -133t25.5 -99t63.5 -34zM1833 475q0 -192 -128.5 -343.5t-330.5 -151.5q-131 0 -216 81.5t-85 233.5q0 196 126.5 341t332.5 157
q131 0 216 -83t85 -235zM661 1225q-70 0 -114.5 -69.5t-44.5 -132.5q0 -62 25.5 -97t63.5 -35q68 0 114.5 66.5t46.5 131.5q0 66 -26 101t-65 35zM1008 1141q0 -192 -132.5 -342t-328.5 -150q-133 0 -216 83t-83 237q0 209 134 352t323 143q133 0 218 -84.5t85 -238.5z" />
    <glyph glyph-name="ampersand" unicode="&#x26;" horiz-adv-x="1429" 
d="M652 274q108 0 179 56l-202 260q-90 -39 -115 -90t-25 -82q0 -59 50.5 -101.5t112.5 -42.5zM896 1202q-61 0 -109 -59.5t-48 -114.5q0 -85 66 -131q56 0 116 62t60 119q0 56 -24.5 90t-60.5 34zM100 345q0 304 369 470q-51 76 -51 178q0 202 153.5 338.5t370.5 136.5
q164 0 267.5 -88.5t103.5 -233.5t-105 -263.5t-258 -177.5l129 -156q57 57 102.5 116.5t61.5 77.5l258 -79q-102 -139 -150 -198.5t-108 -119.5l133 -164l-272 -205l-113 146q-227 -143 -422 -143q-326 0 -397.5 138t-71.5 227z" />
    <glyph glyph-name="quotesingle" unicode="'" horiz-adv-x="581" 
d="M373 1434h426l-404 -736h-211z" />
    <glyph glyph-name="parenleft" unicode="(" horiz-adv-x="911" 
d="M543 449q0 -312 252 -512l-166 -205q-209 125 -327 311t-118 430q0 504 303.5 717t481.5 291l88 -205q-359 -224 -436.5 -459t-77.5 -368z" />
    <glyph glyph-name="parenright" unicode=")" horiz-adv-x="911" 
d="M565 764q0 312 -252 512l166 205q209 -125 327 -313.5t118 -430.5q0 -340 -212 -591t-573 -414l-88 205q360 224 437 459t77 368z" />
    <glyph glyph-name="asterisk" unicode="*" horiz-adv-x="870" 
d="M850 809l-172 127l-35 -236h-180l57 236l-223 -127l-59 156l229 106l-188 109l120 155l174 -127l35 236h180l-59 -236l223 127l60 -155l-230 -107l189 -108z" />
    <glyph glyph-name="plus" unicode="+" horiz-adv-x="1310" 
d="M1278 602h-365l-71 -364h-320l72 364h-365l62 320h364l72 364h320l-72 -364h364z" />
    <glyph glyph-name="comma" unicode="," horiz-adv-x="581" 
d="M518 204q0 -208 -132 -338t-361 -142l-25 157q111 0 159 29t68 72q-61 14 -97 58t-36 100q0 107 76.5 182t179.5 79q76 0 122 -48t46 -149z" />
    <glyph glyph-name="hyphen" unicode="-" horiz-adv-x="835" 
d="M834 522h-672l61 320h672z" />
    <glyph glyph-name="period" unicode="." horiz-adv-x="581" 
d="M294 401q89 0 145.5 -56t56.5 -140q-8 -98 -73 -163t-153 -65t-143 57.5t-54 123.5q2 110 67 176.5t154 66.5z" />
    <glyph glyph-name="slash" unicode="/" horiz-adv-x="1095" 
d="M1126 1634h316l-1276 -1896h-313z" />
    <glyph glyph-name="zero" unicode="0" horiz-adv-x="1495" 
d="M789 338q155 0 254.5 163.5t99.5 303.5q0 141 -54.5 220t-139.5 79t-149.5 -52.5t-110.5 -129t-70.5 -163.5t-24.5 -181t54.5 -167t140.5 -73zM1550 892q0 -148 -58 -314t-165.5 -299.5t-261 -216t-313.5 -82.5q-286 0 -427 156t-141 399q0 168 55.5 330.5t161 291.5
t260 212t351.5 93q240 12 389 -140t149 -430z" />
    <glyph glyph-name="one" unicode="1" horiz-adv-x="864" 
d="M987 1444l-280 -1444h-400l207 1067l-238 -49l-18 309l551 117h178z" />
    <glyph glyph-name="two" unicode="2" horiz-adv-x="1277" 
d="M1362 1020q0 -428 -539 -690h424l-63 -330h-1135l27 137q230 272 520.5 417.5t340.5 221.5t50 156t-46 130t-119 50t-151.5 -53.5t-101.5 -169.5h-346l6 33q75 382 298 462t345 80q224 0 357 -126.5t133 -317.5z" />
    <glyph glyph-name="three" unicode="3" horiz-adv-x="1271" 
d="M676 307q76 0 122 32t65.5 61.5t19.5 59.5q0 150 -228 150h-145l-39 166l342 346h-477l61 320h1035l-33 -174l-408 -420q208 -78 246.5 -170t38.5 -160q0 -271 -199 -406t-470 -135t-375.5 36t-168.5 69l203 299q176 -74 410 -74z" />
    <glyph glyph-name="four" unicode="4" horiz-adv-x="1411" 
d="M944 885l-317 -305h260zM1454 580l-59 -306h-183l-53 -274h-385l53 274h-710l-39 166l1055 1004h307l-168 -864h182z" />
    <glyph glyph-name="five" unicode="5" horiz-adv-x="1290" 
d="M909 938q186 0 282.5 -104.5t96.5 -267.5q0 -300 -190 -444.5t-472 -144.5t-386.5 36t-167.5 69l202 299q176 -74 410 -74q83 0 149 59.5t66 130.5t-37.5 109.5t-132.5 38.5q-47 0 -104.5 -5t-106.5 -9l-115 -15l-141 89l164 737h979l-62 -320h-645l-47 -207
q122 23 258 23z" />
    <glyph glyph-name="six" unicode="6" horiz-adv-x="1355" 
d="M800 674q-110 0 -185.5 -70.5t-75.5 -150.5q0 -81 48.5 -126.5t106.5 -45.5q108 0 185 69t77 151q0 81 -47 127t-109 46zM950 940q166 0 282 -93.5t116 -277.5q0 -278 -197 -433.5t-500 -155.5q-211 0 -344 144.5t-133 375.5q0 360 202 662t601 302q269 0 469 -153
l-225 -281q-118 105 -299 105q-124 0 -200 -101t-91 -211q55 47 147 82t172 35z" />
    <glyph glyph-name="seven" unicode="7" horiz-adv-x="1257" 
d="M1458 1444l-35 -174l-882 -1270h-430l786 1124h-606l63 320h1104z" />
    <glyph glyph-name="eight" unicode="8" horiz-adv-x="1290" 
d="M688 274q88 0 159 49.5t71 143.5q0 59 -59.5 100t-113.5 41q-108 0 -176.5 -53t-68.5 -125t50 -114t138 -42zM863 1200q-82 0 -145 -55.5t-63 -122.5t40.5 -106t88.5 -39q89 0 150 52t61 124t-44 109.5t-88 37.5zM1303 481q0 -253 -205 -377t-453 -124t-391 95t-143 279
q0 254 284 418q-84 96 -84 218q0 227 169.5 350.5t426.5 123.5q194 0 317.5 -85t123.5 -253q0 -207 -195 -354q150 -115 150 -291z" />
    <glyph glyph-name="nine" unicode="9" horiz-adv-x="1355" 
d="M790 770q107 0 184 69.5t77 150.5q0 82 -48.5 127.5t-106.5 45.5q-106 0 -184.5 -68.5t-78.5 -150.5t48.5 -128t108.5 -46zM668 309q128 0 198.5 98t94.5 214q-55 -47 -149 -82t-172 -35q-166 0 -282 93t-116 277q0 266 198 428t498 162q213 0 346 -142.5t133 -386.5
q0 -245 -72.5 -428t-240.5 -355t-492 -172q-278 0 -469 153l228 281q118 -105 297 -105z" />
    <glyph glyph-name="colon" unicode=":" horiz-adv-x="602" 
d="M459 1118q88 0 144 -56t56 -140q-8 -99 -72.5 -163.5t-152.5 -64.5t-143 58t-54 124q2 112 68 177t154 65zM310 401q89 0 145.5 -56t56.5 -140q-8 -97 -72 -162.5t-153 -65.5q-88 0 -143.5 57.5t-54.5 123.5q2 110 67 176.5t154 66.5z" />
    <glyph glyph-name="semicolon" unicode=";" horiz-adv-x="602" 
d="M518 204q0 -208 -132 -338t-361 -142l-25 157q111 0 159 29t68 72q-61 14 -97 58t-36 100q0 107 76.5 182t179.5 79q76 0 122 -48t46 -149zM459 1118q88 0 144 -56t56 -140q-8 -99 -72.5 -163.5t-152.5 -64.5t-143 58t-54 124q2 112 68 177t154 65z" />
    <glyph glyph-name="less" unicode="&#x3c;" horiz-adv-x="1318" 
d="M1313 944l-541 -225l455 -223l-72 -363l-922 498l35 176l1116 500z" />
    <glyph glyph-name="equal" unicode="=" horiz-adv-x="1308" 
d="M250 625h1005l-63 -322h-1006zM1368 1204l-63 -321h-1006l63 321h1006z" />
    <glyph glyph-name="greater" unicode="&#x3e;" horiz-adv-x="1318" 
d="M244 496l540 223l-454 225l71 363l920 -500l-35 -176l-1114 -498z" />
    <glyph glyph-name="question" unicode="?" horiz-adv-x="1105" 
d="M494 401q88 0 144 -56t56 -140q-8 -97 -72 -162.5t-153 -65.5q-88 0 -143.5 57.5t-54.5 123.5q2 110 68.5 176.5t154.5 66.5zM748 1135q-214 0 -400 -74l-69 299q135 64 246 84t296 20t304.5 -98t119.5 -295t-149.5 -330t-384.5 -141l-33 -121h-272l30 264l49 88h133
q89 0 179 52t90 137q0 51 -43 83t-96 32z" />
    <glyph glyph-name="at" unicode="@" horiz-adv-x="1976" 
d="M984 434q85 0 148.5 71t63.5 137t-29 99t-75 33q-83 0 -147 -69.5t-64 -153.5q0 -51 29.5 -84t73.5 -33zM1544 -98q-293 -219 -626 -219t-540.5 211t-207.5 530q0 211 88 402.5t238.5 337t349 232.5t388.5 87q350 0 558.5 -214t208.5 -536q0 -253 -110.5 -387.5
t-216 -188t-226.5 -53.5t-183.5 48.5t-78.5 119.5q-144 -157 -317 -157q-172 0 -257.5 98t-85.5 246q0 106 46 219t125 206t184.5 152.5t224.5 59.5h54q54 0 108.5 -50.5t77.5 -115.5l43 125l297 -47l-173 -500q-34 -100 -34 -158q0 -90 84 -90q141 0 221 148t80 294
q0 283 -176.5 463.5t-452.5 180.5q-226 0 -500 -156t-349 -385t-75 -357t46 -245t176.5 -249t408.5 -132t524 178z" />
    <glyph glyph-name="A" unicode="A" horiz-adv-x="1628" 
d="M764 559h276l-79 313zM1110 268h-532l-168 -268h-418l987 1444h188l428 -1444h-417z" />
    <glyph glyph-name="B" unicode="B" horiz-adv-x="1464" 
d="M788 330q137 0 200 45t79 125q22 111 -61.5 138.5t-149.5 27.5h-231l-66 -336h229zM827 946q57 0 89 24.5t38 59.5q8 35 -13 59.5t-81 24.5h-151l-33 -168h151zM1079 1444q125 0 198.5 -88.5t49.5 -216.5q-16 -92 -56 -150.5t-93 -81.5q160 -24 241.5 -148.5t56 -307.5
t-170 -317t-353.5 -134h-846l281 1444h692z" />
    <glyph glyph-name="C" unicode="C" horiz-adv-x="1449" 
d="M836 342q174 0 303 168l250 -254q-123 -127 -280 -201.5t-311 -74.5q-288 0 -463 179t-175 447q0 172 59.5 329t171 275.5t269.5 189t344 70.5t320 -74.5t214 -203.5l-332 -254q-35 78 -98.5 124t-145.5 46q-159 0 -283 -138.5t-124 -312.5q0 -136 79.5 -225.5
t201.5 -89.5z" />
    <glyph glyph-name="D" unicode="D" horiz-adv-x="1566" 
d="M1217 774q0 144 -75.5 232t-193.5 88h-248l-145 -744h260q158 4 248 100.5t122 173t32 150.5zM1616 828q0 -146 -66.5 -297.5t-180.5 -270.5t-264.5 -189.5t-316.5 -70.5h-682l277 1444h635q263 0 430.5 -170t167.5 -446z" />
    <glyph glyph-name="E" unicode="E" horiz-adv-x="1366" 
d="M1333 330l-63 -330h-1164l281 1444h1120l-65 -330h-733l-50 -254h607l-62 -319h-606l-41 -211h776z" />
    <glyph glyph-name="F" unicode="F" horiz-adv-x="1327" 
d="M709 1114l-91 -463h648l-64 -329h-647l-61 -322h-388l281 1444h1147l-66 -330h-759z" />
    <glyph glyph-name="G" unicode="G" horiz-adv-x="1574" 
d="M1057 1104q-88 0 -171 -42t-186.5 -150.5t-103.5 -293.5q0 -133 82 -217t205 -84t254 68l12 68h-260l63 292h660l-115 -552q-321 -216 -678 -213q-279 0 -455 165t-176 400t135.5 446t355 341t454.5 130q354 0 536 -209l-305 -266q-96 117 -307 117z" />
    <glyph glyph-name="H" unicode="H" horiz-adv-x="1558" 
d="M1692 1444l-281 -1444h-387l61 317h-530l-61 -317h-388l281 1444h387l-160 -821h531l160 821h387z" />
    <glyph glyph-name="I" unicode="I" horiz-adv-x="669" 
d="M514 0h-399l280 1444h400z" />
    <glyph glyph-name="J" unicode="J" horiz-adv-x="1155" 
d="M557 338q54 0 101 40t59 95l190 971h400l-168 -854q-80 -399 -283.5 -504.5t-373.5 -105.5t-289 117t-119 296q0 28 4 62l346 30q0 -147 133 -147z" />
    <glyph glyph-name="K" unicode="K" horiz-adv-x="1495" 
d="M1487 0h-520l-297 426l-115 -109l-61 -317h-388l281 1444h387l-112 -576l610 578h477l-766 -723z" />
    <glyph glyph-name="L" unicode="L" horiz-adv-x="1261" 
d="M1260 319l-62 -319h-1092l281 1444h399l-219 -1125h693z" />
    <glyph glyph-name="M" unicode="M" horiz-adv-x="1777" 
d="M1911 1444l-281 -1444h-399l115 600l-451 -461l-274 461l-115 -600h-400l281 1444h188l431 -729l716 729h189z" />
    <glyph glyph-name="N" unicode="N" horiz-adv-x="1607" 
d="M1741 1444l-281 -1444h-188l-623 743l-143 -743h-400l281 1444h188l621 -744l145 744h400z" />
    <glyph glyph-name="O" unicode="O" horiz-adv-x="1701" 
d="M1333 760q0 149 -91.5 246.5t-242.5 97.5q-152 0 -278.5 -139t-126.5 -293q0 -155 91.5 -244.5t234.5 -89.5q75 0 150 35t133.5 93t94 137t35.5 157zM1032 1462q320 0 514.5 -188t194.5 -463q0 -193 -71 -347.5t-190.5 -262t-277.5 -164.5t-318 -57q-308 0 -505 184
t-197 452q0 168 63.5 322t179.5 270.5t275.5 185t331.5 68.5z" />
    <glyph glyph-name="P" unicode="P" horiz-adv-x="1378" 
d="M1075 930q0 80 -45 137t-158 57h-149l-102 -528h114q147 8 243.5 92t96.5 242zM1004 1444q262 0 381.5 -114.5t119.5 -299.5q0 -354 -210 -533.5t-570 -179.5h-158l-61 -317h-400l281 1444h617z" />
    <glyph glyph-name="Q" unicode="Q" horiz-adv-x="1701" 
d="M1311 750q0 160 -90.5 257t-241.5 97t-279.5 -127.5t-128.5 -288.5q0 -160 91.5 -255t232.5 -95q76 0 137 27l-74 69l205 215l92 -86q56 99 56 187zM164 631q0 162 70.5 312.5t190.5 265t277.5 184t317.5 69.5q309 0 504.5 -187t195.5 -459t-190 -511l135 -125l-207 -215
l-153 146q-212 -131 -455 -131q-294 0 -490 186.5t-196 464.5z" />
    <glyph glyph-name="R" unicode="R" horiz-adv-x="1472" 
d="M797 596q150 0 245 87t95 247q0 80 -45 137t-156 57h-213l-102 -528h176zM1065 1444q261 0 382.5 -116.5t121.5 -307.5q0 -240 -96.5 -389.5t-284.5 -237.5l237 -393h-473l-170 317h-215l-61 -317h-400l281 1444h678z" />
    <glyph glyph-name="S" unicode="S" horiz-adv-x="1335" 
d="M250 414q208 -105 432 -105q117 0 174 25.5t57 89.5q0 39 -46.5 67.5t-160.5 54.5t-302.5 83.5t-188.5 283.5q0 248 170 398.5t467 150.5q184 0 318.5 -38t238.5 -81l-207 -305q-248 95 -414 95q-57 0 -108 -27.5t-51 -77.5q0 -49 48 -75.5t179 -55.5
q240 -66 352.5 -158.5t112.5 -248.5t-103 -333t-552 -177q-203 0 -322 25.5t-283 113.5z" />
    <glyph glyph-name="T" unicode="T" horiz-adv-x="1351" 
d="M1501 1124h-430l-215 -1124h-399l215 1124h-428l61 320h1258z" />
    <glyph glyph-name="U" unicode="U" horiz-adv-x="1552" 
d="M592 535q0 -113 58 -158t182 -45t210 77.5t125 274.5l148 760h387l-168 -864q-46 -322 -261 -461t-523 -139q-257 0 -406 137.5t-149 374.5q0 41 6 88l166 864h387q-162 -852 -162 -909z" />
    <glyph glyph-name="V" unicode="V" horiz-adv-x="1556" 
d="M1364 1444h434l-950 -1444h-180l-396 1444h433l169 -836z" />
    <glyph glyph-name="W" unicode="W" horiz-adv-x="2287" 
d="M1655 0h-156l-221 819l-533 -819h-155l-303 1444h399l119 -817l516 817h156l200 -817l437 817h399z" />
    <glyph glyph-name="X" unicode="X" horiz-adv-x="1499" 
d="M1276 1444h438l-586 -713l330 -731h-448l-197 438l-360 -438h-449l610 731l-313 713h440l187 -420z" />
    <glyph glyph-name="Y" unicode="Y" horiz-adv-x="1480" 
d="M1747 1444l-735 -959l-92 -485h-400l92 485l-354 959h453l182 -541l401 541h453z" />
    <glyph glyph-name="Z" unicode="Z" horiz-adv-x="1429" 
d="M684 319h705l-60 -319h-1268l29 166l897 958h-686l61 320h1244l-33 -174z" />
    <glyph glyph-name="bracketleft" unicode="[" horiz-adv-x="935" 
d="M655 1157l-219 -1137h389l-55 -280h-709l330 1696h709l-56 -279h-389z" />
    <glyph glyph-name="backslash" unicode="\" horiz-adv-x="1095" 
d="M-14 1634h315l842 -1896h-316z" />
    <glyph glyph-name="bracketright" unicode="]" horiz-adv-x="935" 
d="M461 20l219 1137h-389l55 279h709l-330 -1696h-709l56 280h389z" />
    <glyph glyph-name="asciicircum" unicode="^" 
d="M252 1004l428 440h170l262 -440h-266l-123 219l-207 -219h-264z" />
    <glyph glyph-name="underscore" unicode="_" horiz-adv-x="1228" 
d="M1155 -279h-1233l41 218h1233z" />
    <glyph glyph-name="grave" unicode="`" 
d="M457 1548l368 33l142 -434h-176z" />
    <glyph glyph-name="a" unicode="a" horiz-adv-x="1363" 
d="M1004 733q-74 70 -194 70t-207 -98.5t-87 -221.5q0 -82 55 -126t131 -44q135 0 234 70zM129 410q0 141 49 273t139.5 233.5t216 162t267.5 60.5t268 -70l8 47h387l-215 -1116h-387l10 59q-154 -79 -269 -79q-219 0 -346.5 116t-127.5 314z" />
    <glyph glyph-name="b" unicode="b" horiz-adv-x="1384" 
d="M545 383q74 -70 190 -70t206.5 88.5t90.5 223.5q0 80 -54 129t-160 49t-206 -70zM947 1137q216 0 345 -115t129 -308q0 -359 -205 -548t-481 -189q-131 0 -258 64l-6 -41h-387l299 1544h387l-90 -469q153 62 267 62z" />
    <glyph glyph-name="c" unicode="c" horiz-adv-x="1165" 
d="M658 -20q-236 0 -379.5 130.5t-143.5 325.5q0 143 64.5 270.5t168 222.5t235.5 151.5t270 56.5t243 -63.5t158 -172.5l-289 -223q-20 57 -66.5 91t-108.5 34q-116 0 -203 -98.5t-87 -210.5q0 -78 52.5 -129.5t128.5 -51.5q147 0 237 125l199 -221q-98 -111 -226.5 -174
t-252.5 -63z" />
    <glyph glyph-name="d" unicode="d" horiz-adv-x="1384" 
d="M526 485q0 -84 55 -128t131 -44q135 0 234 70l68 350q-74 70 -193 70t-207 -98t-88 -220zM139 430q0 121 53.5 253t145.5 232.5t217 161t262 60.5t264 -62l90 469h388l-299 -1544h-388l7 39q-258 -107 -447.5 -39t-241 188.5t-51.5 241.5z" />
    <glyph glyph-name="e" unicode="e" horiz-adv-x="1239" 
d="M777 842q-71 0 -129 -50.5t-93 -121.5h369q14 78 -31 125t-116 47zM1280 697q0 -83 -37 -244h-731q10 -72 57 -125.5t140 -53.5q135 0 254 140l202 -197q-109 -123 -226.5 -180t-331.5 -57t-343 125t-129 317q0 292 194.5 503.5t504.5 211.5q215 0 330.5 -128t115.5 -312
z" />
    <glyph glyph-name="f" unicode="f" horiz-adv-x="827" 
d="M942 1247q-56 0 -91.5 -9t-55 -26.5t-26.5 -42t-13 -53.5h248l-60 -305h-248l-157 -817q-35 -175 -151.5 -270t-252.5 -95t-217 23l57 295h17q107 0 133.5 38t37.5 85t25 118l121 623h-129l60 305h129l16 84q35 177 151.5 272t287 95t261.5 -49l-55 -275q-32 4 -88 4z
" />
    <glyph glyph-name="g" unicode="g" horiz-adv-x="1384" 
d="M535 520q0 -64 56.5 -103.5t162.5 -39.5t202 63l60 301q-72 61 -190 61t-204.5 -80t-86.5 -202zM571 -391q-190 0 -270 14.5t-128 29.5t-112 34l125 270q78 -20 162 -43t162 -23q78 -1 152 13q73 14 126.5 68.5t83.5 123.5q-136 -51 -250 -51q-218 0 -347.5 112.5
t-129.5 301.5q0 297 188.5 487.5t487.5 190.5q133 0 260 -58l6 37h388l-168 -864q-23 -111 -60 -225.5t-166.5 -266t-509.5 -151.5z" />
    <glyph glyph-name="h" unicode="h" horiz-adv-x="1298" 
d="M920 698q0 105 -134 105q-93 0 -170 -53l-145 -750h-387l299 1544h387l-88 -454q123 47 240 47q213 0 306 -75t93 -247q0 -80 -54.5 -361.5t-86.5 -453.5h-387q127 649 127 698z" />
    <glyph glyph-name="i" unicode="i" horiz-adv-x="612" 
d="M563 1612q88 0 144.5 -56.5t56.5 -140.5q-8 -99 -73.5 -163t-152.5 -64t-142.5 57.5t-54.5 123.5q2 111 68 177t154 66zM305 1116h387l-215 -1116h-387z" />
    <glyph glyph-name="j" unicode="j" horiz-adv-x="618" 
d="M565 1612q88 0 144.5 -56.5t56.5 -140.5q-8 -98 -72.5 -162.5t-152.5 -64.5t-143.5 57.5t-54.5 123.5q2 111 68 177t154 66zM-70 -74q105 0 134 43t59 199l184 948h387l-221 -1143q-35 -174 -151.5 -269t-256.5 -95t-210 22l57 295h18z" />
    <glyph glyph-name="k" unicode="k" horiz-adv-x="1234" 
d="M1225 0h-426l-148 381l-131 -121l-49 -260h-387l299 1544h387l-152 -776l367 348h445l-467 -440z" />
    <glyph glyph-name="l" unicode="l" horiz-adv-x="614" 
d="M391 1544h387l-299 -1544h-387z" />
    <glyph glyph-name="m" unicode="m" horiz-adv-x="1988" 
d="M1616 1137q213 0 306 -75t93 -247q0 -71 -22 -203l-119 -612h-387l119 612q8 39 8 87q0 104 -133 104q-91 0 -170 -58v-10q0 -30 -21 -127l-116 -608h-388l119 612q8 41 8 89q0 102 -125 102q-95 0 -172 -60l-143 -743h-387l215 1116h387l-8 -43q127 63 244 64
q265 0 348 -125q178 125 344 125z" />
    <glyph glyph-name="n" unicode="n" horiz-adv-x="1298" 
d="M922 1137q213 0 306 -75t93 -247q0 -78 -23 -203l-118 -612h-387l118 612q25 121 -14 156t-99 35q-108 0 -184 -60l-143 -743h-387l215 1116h387l-8 -43q127 64 244 64z" />
    <glyph glyph-name="o" unicode="o" horiz-adv-x="1343" 
d="M696 313q132 0 215.5 83.5t83.5 189.5t-52.5 161.5t-124.5 55.5q-128 0 -214 -95.5t-86 -189.5t53 -149.5t125 -55.5zM824 1137q250 0 402 -139t152 -325q0 -339 -210.5 -516t-508.5 -177q-223 0 -374.5 138.5t-151.5 336.5q0 290 141.5 432.5t274.5 196t275 53.5z" />
    <glyph glyph-name="p" unicode="p" horiz-adv-x="1384" 
d="M545 383q74 -70 192 -70t206.5 95.5t88.5 214.5q0 80 -54 130t-160 50t-206 -70zM945 1137q218 0 346 -112.5t128 -313.5q0 -141 -53 -273.5t-145.5 -234t-216 -162.5t-262.5 -61t-265 61l-78 -399h-387l287 1474h387l-6 -41q149 62 265 62z" />
    <glyph glyph-name="q" unicode="q" horiz-adv-x="1384" 
d="M526 483q0 -82 55 -126t131 -44q135 0 234 70l68 350q-74 70 -194 70t-207 -98.5t-87 -221.5zM139 410q0 141 53.5 273t145.5 232.5t216 161t260 60.5t267 -62l6 41h388l-287 -1474h-387l78 399q-151 -61 -267 -61q-219 0 -346 116t-127 314z" />
    <glyph glyph-name="r" unicode="r" horiz-adv-x="876" 
d="M837 735q-111 0 -175.5 -60t-88.5 -157l-100 -518h-387l215 1116h387l-20 -110q169 131 376 131l-79 -412q-73 10 -128 10z" />
    <glyph glyph-name="s" unicode="s" horiz-adv-x="1052" 
d="M584 272q70 0 88 23t18 37q0 24 -29.5 37.5t-113.5 32.5q-173 39 -265 102t-92 180q0 213 137.5 333t374.5 120q145 0 249 -29t186 -64l-183 -272q-174 70 -317 70q-53 0 -70.5 -11.5t-21.5 -33.5q0 -29 35.5 -47t167.5 -46t216.5 -89.5t84.5 -184.5t-88.5 -286.5
t-442.5 -163.5q-160 0 -259.5 22t-211.5 86l195 274q184 -90 342 -90z" />
    <glyph glyph-name="t" unicode="t" horiz-adv-x="882" 
d="M627 380q0 -48 25.5 -65.5t81.5 -17.5t118 4l-53 -274q-111 -47 -295 -47q-127 0 -209 67.5t-82 204.5q0 30 10 92l90 467h-137l60 305h137l84 428h387l-84 -428h254l-60 -305h-254q-73 -383 -73 -431z" />
    <glyph glyph-name="u" unicode="u" horiz-adv-x="1298" 
d="M549 416q1 -103 125 -103q60 0 103.5 26t80.5 54l143 723h388l-215 -1116h-388l9 43q-127 -63 -244 -63q-213 0 -312.5 81.5t-99.5 247.5q0 25 8.5 67t18.5 93t39.5 194t87.5 453h387q-31 -164 -51.5 -277.5t-34.5 -189.5t-29.5 -148t-15.5 -85z" />
    <glyph glyph-name="v" unicode="v" horiz-adv-x="1280" 
d="M1454 1116l-743 -1116h-181l-315 1116h403l125 -483l308 483h403z" />
    <glyph glyph-name="w" unicode="w" horiz-adv-x="1763" 
d="M1933 1116l-624 -1116h-187l-149 571l-373 -571h-184l-197 1116h383l74 -504l309 504h182l117 -504l268 504h381z" />
    <glyph glyph-name="x" unicode="x" horiz-adv-x="1206" 
d="M408 0h-412l483 575l-260 541h428l103 -256l200 256h428l-471 -541l264 -575h-413l-125 258z" />
    <glyph glyph-name="y" unicode="y" horiz-adv-x="1310" 
d="M551 416q1 -103 125 -103q60 0 103.5 26t80.5 54l144 723h387l-166 -864q-42 -213 -78.5 -299t-83.5 -146.5t-120 -104.5t-176 -68.5t-229 -24.5t-195 5t-121 14.5t-100 24.5t-112 34l125 270q78 -20 162 -43t162 -23q78 -1 143 11q115 21 191 139q-123 -61 -240 -61
q-213 0 -312.5 81.5t-99.5 247.5q0 25 8.5 67t18.5 93t39.5 194t87.5 453h387q-31 -164 -51.5 -277.5t-34.5 -189.5t-29.5 -148t-15.5 -85z" />
    <glyph glyph-name="z" unicode="z" horiz-adv-x="1153" 
d="M649 305h484l-58 -305h-1057l33 178l625 633h-455l60 305h1028l-33 -178z" />
    <glyph glyph-name="braceleft" unicode="{" horiz-adv-x="1003" 
d="M592 567q131 -43 131 -157q0 -53 -8 -99l-15 -71q-28 -138 -28 -181q0 -81 46.5 -112t168.5 -31l-45 -238q-244 0 -328 34t-122 84t-38 136q0 36 11 95l6 30q30 150 30 205t-13 85t-55.5 55.5t-203.5 25.5l53 279q119 0 186.5 17t104.5 63.5t56 123t43 196.5t78.5 189.5
t134 105.5t181 45t218.5 9l-45 -237q-176 0 -221.5 -57.5t-60.5 -118t-30 -144.5l-14 -76q-23 -109 -73 -168t-148 -88z" />
    <glyph glyph-name="bar" unicode="|" horiz-adv-x="727" 
d="M508 1634h297l-367 -1896h-297z" />
    <glyph glyph-name="braceright" unicode="}" horiz-adv-x="1003" 
d="M455 737q0 26 7 66t10 59.5t10 55.5t16.5 82.5t9.5 80.5q0 72 -45 105t-170 33l45 237q244 0 328 -32.5t121.5 -83t37.5 -112.5t-6 -94q-5 -32 -23 -130t-18 -143q0 -90 57.5 -122t215.5 -32l-54 -279q-119 0 -185.5 -17.5t-105 -63.5t-58 -124t-51.5 -246t-182 -233.5
t-419 -65.5l45 238q176 0 221 57.5t66 143t36.5 190.5t69 168.5t152.5 91.5q-131 44 -131 170z" />
    <glyph glyph-name="asciitilde" unicode="~" horiz-adv-x="1034" 
d="M459 555q-76 0 -146 -113l-163 19q31 164 121 260t202 96q75 0 175.5 -40t129.5 -40q73 0 144 115l165 -21q-32 -161 -123.5 -258.5t-199.5 -97.5q-70 0 -141.5 27.5t-105.5 40t-58 12.5z" />
    <glyph glyph-name="exclamdown" unicode="&#xa1;" horiz-adv-x="663" 
d="M540 1040q-89 0 -144.5 57t-54.5 123q2 110 67 176t154 66t145.5 -56t56.5 -140q-8 -97 -71.5 -161.5t-152.5 -64.5zM625 911l-113 -911h-399l239 911h273z" />
    <glyph glyph-name="cent" unicode="&#xa2;" horiz-adv-x="1177" 
d="M461 703q0 -123 84 -197l172 538q-108 -29 -182 -123.5t-74 -217.5zM131 714q0 108 54.5 224.5t147.5 202.5t217 139t261 61l39 121h242l-52 -164q137 -57 224 -178l-267 -200q-24 40 -55 71l-172 -540q111 29 184 127l217 -201q-96 -102 -224 -161.5t-271 -61.5
l-49 -154h-244l61 199q-142 61 -227.5 193t-85.5 322z" />
    <glyph glyph-name="sterling" unicode="&#xa3;" horiz-adv-x="1308" 
d="M1026 1464q145 0 250.5 -71.5t148.5 -188.5l-292 -219q-16 49 -56.5 85t-97.5 36q-94 0 -148.5 -106.5t-54.5 -221.5h432l-53 -280h-407q-5 -62 -11 -179h541l-61 -319h-1149l32 174l228 125q4 47 6 96t8 103h-178l53 280h158q49 334 221 510t430 176z" />
    <glyph glyph-name="KB" unicode="&#xa4;" horiz-adv-x="1992" 
d="M406 -305v2q0 4 2 6l20 68h8l-26 -86h-11l-16 59q0 2 -1 4t-1 4l-19 -67h-8l-28 86h10l20 -68v-6q0 -2 2 -2v2q0 4 2 8l17 66h8l9 -38q9 -38 12 -38zM229 -303q0 -2 2 -2v2q0 4 2 8l17 66h10l16 -66v-8q0 -2 3 -2v2q0 4 2 6l20 68h8l-26 -86h-11l-14 59q-2 2 -2 6t-2 4
v-2l-18 -67h-9l-28 86h10l20 -68v-6zM156 -305v2q0 4 2 6l20 68h8l-26 -86h-10l-17 59q0 2 -1 4t-1 4l-18 -67h-9l-28 86h10l20 -68q0 -8 3 -8v2q0 4 2 8l16 66h8l9 -38q10 -38 12 -38zM1653 -231h8v-86h-8l-47 67q0 2 -1 3l-1 -1v-69h-9v86h9l45 -64l4 -8v72zM1137 -231h8
v-86h-8l-47 67q-2 2 -2 3l-1 -1v-69h-10v86h10l43 -64q6 -6 7 -8v72zM567 -231h8v-86h-8l-45 67q-4 4 -4 6v-73h-8v86h8l45 -64l4 -8v72zM1425 -229q12 0 21 -15l-6 -4q-4 10 -16 10t-13 -14q1 -10 21 -16q20 -10 20 -25q0 -25 -26 -25t-29 19l6 4q4 -14 21 -14t18 16
q0 13 -21 21t-20 20q0 23 24 23zM1266 -307q14 0 24 8.5t10 24.5t-10 25t-24 9h-15v-67h15zM1266 -231q43 0 43 -43q1 -23 -15 -33t-28 -10h-25v86h25zM1845 -264q0 25 -24 24h-13v-51h13l10 2q14 6 14 25zM1808 -299v-18h-8v86h21q14 -1 24 -11t10 -26t-20 -27l20 -22h-12
l-16 20l-6 -2h-13zM891 -231v-86h-8v86h8zM1479 -231v-86h-9v86h9zM487 -231v-86h-8v86h8zM825 -231v-76h41v-10h-49v86h8zM758 -231v-76h39v-10h-49v86h10zM1542 -238q-35 0 -35 -36q0 -14 9.5 -24.5t26 -10.5t24.5 8v10h-21v8h31v-22q-11 -12 -33 -12t-34.5 12t-12.5 30.5
t13.5 32t32 13.5t32.5 -15l-8 -6q-10 12 -25 12zM920 -274q0 -35 25.5 -35t33.5 8v10h-21v8h31v-22q-13 -12 -33 -12t-33.5 12t-13.5 30.5t13.5 32t32 13.5t32.5 -15l-6 -6q-12 12 -26.5 12t-24.5 -10t-10 -26zM1750 -317q-24 0 -36 12t-12 30.5t12 32t30.5 13.5t33.5 -15
l-6 -6q-10 12 -26 12t-26 -10t-10 -25t10.5 -25.5t25.5 -10.5t26 8v10h-23v8h31v-22q-6 -12 -30 -12zM1163 -240v9h62v-9h-27v-77h-8v77h-27zM596 -240v9h61v-9h-26v-77h-10v77h-25zM1059 -231v-9h-43v-36h41v-9h-41v-22h45v-10h-53v86h51zM729 -231v-9h-43v-36h41v-9h-41
v-22h45v-10h-53v86h51zM1378 -231v-9h-43v-36h41v-9h-41v-22h45v-10h-53v86h51zM1679 -310q-1 7 7 7t8 -7t-8 -7t-7 7zM440 -310q0 7 8 7t7 -7q1 -7 -7 -7t-8 7zM1012 225h49v-180h-23l-96 92v-92h-49v180h22l97 -94v94zM369 84h86v-39h-136v180h130v-41h-80v-24h53v-35h-53
v-41zM1133 84h86v-39h-136v180h131v-41h-81v-24h55v-35h-55v-41zM1524 84q31 0 30 22q0 20 -36 21h-17v-43h23zM1532 184h-31v-22h29q14 0 14 11t-12 11zM1534 225q53 0 53 -39q0 -20 -16 -32q35 -14 35 -46q0 -64 -56 -63h-96v180h80zM793 41q-39 0 -67 27.5t-28 66.5
t28 65.5t70 26.5t72 -26l-32 -33q-18 14 -38 14t-34 -13t-14 -35t13 -36t29 -14t31 8v8h-32v35h83v-67q-42 -27 -81 -27zM201 88h14q16 0 28.5 13.5t12.5 32.5t-12.5 32.5t-28.5 13.5h-14v-92zM305 135q0 -37 -24.5 -62.5t-61.5 -27.5h-65v180h61q37 0 63.5 -26.5
t26.5 -63.5zM1290 88h15q16 0 27 13.5t11 32.5t-12 32.5t-28 13.5h-13v-92zM1393 135q0 -37 -25 -62.5t-59 -27.5h-68v180h62q37 0 63.5 -26.5t26.5 -63.5zM635 45v180h49v-180h-49zM1710 45h-49v59l-68 119h56l37 -65l36 65h58l-70 -119v-59zM618 100q0 -59 -73 -59
q-38 0 -78 18l18 37q31 -14 57 -14t25 12v2q-1 8 -29 16t-47.5 18.5t-19.5 37.5t17.5 43t45.5 16t78 -14l-20 -39q-36 12 -54 12t-18 -9t6 -13t31 -9q61 -12 61 -55zM1081 1239h-71v-274h180q49 45 49 113t-46.5 114.5t-111.5 46.5zM1081 602q65 0 111.5 47t46.5 115
t-49 113h-180v-275h71zM922 965v274l-142 -141v141h-88v-274h230zM922 877h-230v-275h88v141l142 -141v275zM1546 920q0 -118 -64.5 -212t-168.5 -135q-41 -104 -135 -168.5t-212 -64.5t-212.5 64.5t-135.5 168.5q-104 41 -168.5 135.5t-64.5 212.5t64.5 212t168.5 135
q41 104 135.5 168.5t212.5 64.5t212 -64.5t135 -168.5q104 -41 168.5 -135.5t64.5 -212.5z" />
    <glyph glyph-name="yen" unicode="&#xa5;" horiz-adv-x="1495" 
d="M1208 729h246l-47 -244h-385l-21 -102h385l-47 -246h-385l-26 -137h-400l27 137h-385l47 246h385l21 102h-385l47 244h243l-264 715h453l184 -541l399 541h453z" />
    <glyph glyph-name="brokenbar" unicode="&#xa6;" horiz-adv-x="735" 
d="M295 524h297l-152 -784h-297zM512 1634h297l-154 -784h-297z" />
    <glyph glyph-name="section" unicode="&#xa7;" horiz-adv-x="1280" 
d="M606 831q-87 -21 -100 -92q0 -59 106.5 -81.5t157.5 -32.5l111 -23q115 20 127 78q0 53 -213 100q-125 32 -189 51zM609 248q171 0 171 82q0 29 -81.5 51t-287.5 62.5t-206 197.5q0 136 84 203t123 88q-64 51 -64 128t42 152.5t151 161.5t314 86q204 0 334 -38t171 -56
l-182 -272q-210 84 -385 84q-35 0 -65 -15.5t-30 -45.5t37 -45.5t128 -35.5t170 -34.5t176.5 -52.5t97.5 -163q0 -87 -61 -175.5t-138 -108.5q29 -35 29 -86q0 -106 -48.5 -189.5t-163 -168.5t-319.5 -85q-153 0 -255.5 22.5t-215.5 86.5l191 254q162 -88 283 -88z" />
    <glyph glyph-name="dieresis" unicode="&#xa8;" 
d="M627 1382v-18q-8 -72 -63.5 -124t-125.5 -52t-113.5 42t-43.5 107v19q8 73 65 124.5t125 51.5t112 -42t44 -108zM1069 1382v-18q-8 -72 -63.5 -124t-125.5 -52t-113.5 44t-43.5 109v19q8 73 64 122.5t125 49.5t113 -42t44 -108z" />
    <glyph glyph-name="copyright" unicode="&#xa9;" horiz-adv-x="1699" 
d="M729 701q0 -89 47 -143t121 -54q99 0 168 96l152 -145q-66 -74 -156.5 -117t-180.5 -43q-170 0 -274 113t-104 278q0 27 4 55v4q20 171 158 289.5t313 118.5q98 0 178 -43t127 -117l-186 -145q-43 96 -138 96t-162 -77t-67 -166zM842 78q131 0 262 55t231.5 151.5
t162 227t61.5 266.5q0 262 -156.5 427t-403.5 165q-141 0 -272 -56.5t-232.5 -152.5t-162 -226.5t-60.5 -266.5t41 -241t116 -183t178.5 -122t234.5 -44zM1665 792q0 -148 -64.5 -297t-177 -263.5t-266 -183t-316.5 -68.5t-283 52t-206 143t-134 214t-48 275t67.5 297
t182.5 254.5t267.5 177t324.5 77.5q143 0 264 -52t207 -143t134 -213t48 -270z" />
    <glyph glyph-name="ordfeminine" unicode="&#xaa;" horiz-adv-x="1046" 
d="M760 1208q-66 0 -110 -25.5t-70.5 -63.5t-34.5 -82t4 -81.5t45 -63.5t98 -26t137 49l50 244q-53 49 -119 49zM576 633q-115 0 -188 60.5t-97.5 150.5t-4 194.5t80 194.5t155.5 150.5t203 60.5t199 -49l6 32h272l-151 -780h-273l8 41q-95 -55 -210 -55z" />
    <glyph glyph-name="guillemotleft" unicode="&#xab;" horiz-adv-x="1292" 
d="M682 545l465 532l211 -182l-334 -350l199 -348l-283 -185zM145 545l465 532l211 -182l-334 -350l199 -348l-283 -185z" />
    <glyph glyph-name="logicalnot" unicode="&#xac;" horiz-adv-x="1216" 
d="M1192 387h-320l72 365h-729l61 319h1049z" />
    <glyph glyph-name="uni00AD" unicode="&#xad;" horiz-adv-x="835" 
d="M834 522h-672l61 320h672z" />
    <glyph glyph-name="registered" unicode="&#xae;" horiz-adv-x="1699" 
d="M887 659q90 0 136 52t46 115t-27.5 101t-97.5 38h-123l-37 -306h103zM1004 1149q160 0 235.5 -73.5t75.5 -190.5q0 -23 -4 -51q-23 -178 -140 -263l115 -129l-176 -159l-192 217l-46 -1q-46 -1 -108 -1l-23 -183h-229l102 834h390zM844 78q131 0 262 55t231.5 151.5
t162 227t61.5 266.5q0 262 -156.5 427t-403.5 165q-150 0 -281.5 -58.5t-231 -156.5t-157 -227.5t-57.5 -263.5t41 -238t116 -182t178.5 -122t234.5 -44zM1000 1470q300 0 483.5 -194t183.5 -475q0 -158 -61.5 -306.5t-173 -263t-266 -183t-320.5 -68.5t-286 52t-206 143
t-134 214t-48 273t67.5 299t183.5 262.5t268.5 180t308.5 66.5z" />
    <glyph glyph-name="macron" unicode="&#xaf;" 
d="M387 1450h770l-45 -238h-770z" />
    <glyph glyph-name="degree" unicode="&#xb0;" horiz-adv-x="966" 
d="M560 934q96 0 154 60t58 133q0 72 -44 114.5t-96 42.5q-92 0 -150 -60t-58 -132t41 -115t95 -43zM318 838q-95 93 -95 241t128.5 272t277.5 124q148 0 246 -94.5t98 -241.5t-127.5 -270.5t-280.5 -123.5q-152 0 -247 93z" />
    <glyph glyph-name="plusminus" unicode="&#xb1;" horiz-adv-x="1310" 
d="M1182 0h-1049l62 319h1048zM1327 752h-364l-72 -365h-320l72 365h-364l61 319h365l71 365h320l-72 -365h365z" />
    <glyph glyph-name="twosuperior" unicode="&#xb2;" horiz-adv-x="849" 
d="M731 1157q0 45 -26.5 74t-56.5 29q-55 0 -101 -32.5t-58 -99.5h-202q8 76 86.5 206t304.5 130q114 0 192 -72t78 -186q0 -199 -120.5 -287t-174.5 -114h230l-37 -193h-660l19 97q79 105 265.5 204.5t223.5 149t37 94.5z" />
    <glyph glyph-name="threesuperior" unicode="&#xb3;" horiz-adv-x="849" 
d="M516 965h-84l-22 94l190 194h-268l37 189h594l-19 -101l-235 -241q72 -25 118.5 -66t46.5 -114q0 -25 -6 -52q-25 -127 -130 -197.5t-255 -70.5t-210 21.5t-97 40.5l117 172q94 -43 235 -43q33 0 72.5 20t46.5 76q0 49 -44 63.5t-87 14.5z" />
    <glyph glyph-name="acute" unicode="&#xb4;" 
d="M621 1147h-177l226 434l362 -33z" />
    <glyph glyph-name="mu" unicode="&#xb5;" horiz-adv-x="1306" 
d="M559 417q0 -104 133 -104q95 0 172 60l144 743h387l-215 -1116h-387l6 35q-100 -55 -184 -55t-142 32l-74 -370h-387l287 1474h387l-119 -612q-8 -39 -8 -87z" />
    <glyph glyph-name="paragraph" unicode="&#xb6;" horiz-adv-x="1220" 
d="M688 954q0 -77 109 -77h51l39 198h-53q-57 0 -101.5 -31.5t-44.5 -89.5zM197 819q0 285 210.5 450t495.5 165h449l-279 -1434h-399l86 451q-268 0 -415.5 93t-147.5 275z" />
    <glyph glyph-name="periodcentered" unicode="&#xb7;" horiz-adv-x="581" 
d="M273 430q-89 0 -144 57t-54 123q2 110 68 176t154 66t144.5 -56.5t56.5 -140.5q-8 -99 -72 -162t-153 -63z" />
    <glyph glyph-name="cedilla" unicode="&#xb8;" 
d="M391 31h256l-147 -297l-363 33z" />
    <glyph glyph-name="onesuperior" unicode="&#xb9;" horiz-adv-x="849" 
d="M850 1444l-162 -832h-229l119 615l-138 -29l-10 178l318 68h102z" />
    <glyph glyph-name="ordmasculine" unicode="&#xba;" horiz-adv-x="1038" 
d="M743 1210q-104 0 -147 -76.5t-49 -115.5q-14 -61 24.5 -105.5t105.5 -44.5t126 57t71 134q14 63 -24.5 107t-106.5 44zM768 1444q190 0 296.5 -113t74.5 -272q-34 -186 -167.5 -309t-320.5 -115t-294 117t-74 266q29 183 162 304.5t323 121.5z" />
    <glyph glyph-name="guillemotright" unicode="&#xbb;" horiz-adv-x="1292" 
d="M311 12l-213 185l334 348l-199 350l285 182l256 -532zM848 12l-213 185l334 348l-199 350l285 182l256 -532z" />
    <glyph glyph-name="onequarter" unicode="&#xbc;" horiz-adv-x="1886" 
d="M1552 510l-178 -168h146zM1847 342l-37 -184h-106l-29 -158h-221l29 158h-412l-20 96l610 580h176l-96 -492h106zM817 1444l-162 -832h-229l119 615l-137 -29l-11 178l318 68h102zM1612 1434h276l-1382 -1434h-277z" />
    <glyph glyph-name="onehalf" unicode="&#xbd;" horiz-adv-x="1959" 
d="M1677 545q0 45 -26.5 73.5t-56.5 28.5q-56 0 -102 -33.5t-56 -97.5h-203q8 76 86.5 206t304.5 130q114 0 192 -72.5t78 -185.5q0 -199 -120.5 -287t-174.5 -114h230l-37 -193h-659l18 96q82 110 266 206t222 147t38 96zM797 1444l-162 -832h-229l118 615l-137 -29
l-10 178l317 68h103zM1591 1434h277l-1383 -1434h-276z" />
    <glyph glyph-name="threequarters" unicode="&#xbe;" horiz-adv-x="1882" 
d="M549 791q33 0 77.5 22.5t41.5 69.5t-41.5 64.5t-89.5 17.5h-84l-23 94l191 194h-269l37 189h594l-18 -101l-236 -241q94 -32 136.5 -85t23.5 -147q-25 -127 -130.5 -197.5t-255.5 -70.5t-210 21.5t-96 40.5l116 172q94 -43 236 -43zM1552 510l-178 -168h146zM1847 342
l-37 -184h-106l-29 -158h-221l29 158h-412l-20 96l610 580h176l-96 -492h106zM1612 1434h276l-1382 -1434h-277z" />
    <glyph glyph-name="questiondown" unicode="&#xbf;" horiz-adv-x="1105" 
d="M808 1040q-89 0 -144.5 57t-54.5 123q2 110 68.5 176t154.5 66t144 -56t56 -140q-8 -97 -71.5 -161.5t-152.5 -64.5zM586 309q221 0 397 72l78 -299q-141 -62 -249 -82t-295 -20t-305 99t-118 299t141.5 329t376.5 137l31 119h275l-29 -265l-47 -86h-133q-101 0 -179 -56
t-84 -134q0 -53 43 -83t97 -30z" />
    <glyph glyph-name="Agrave" unicode="&#xc0;" horiz-adv-x="1628" 
d="M764 559h276l-79 313zM1110 268h-532l-168 -268h-418l987 1444h188l428 -1444h-417zM555 1876l414 33l213 -379h-228z" />
    <glyph glyph-name="Aacute" unicode="&#xc1;" horiz-adv-x="1628" 
d="M764 559h276l-79 313zM1110 268h-532l-168 -268h-418l987 1444h188l428 -1444h-417zM1198 1530h-227l213 379l413 -33z" />
    <glyph glyph-name="Acircumflex" unicode="&#xc2;" horiz-adv-x="1628" 
d="M764 559h276l-79 313zM1110 268h-532l-168 -268h-418l987 1444h188l428 -1444h-417zM1026 1868h234l262 -338h-250l-172 166l-172 -166h-246z" />
    <glyph glyph-name="Atilde" unicode="&#xc3;" horiz-adv-x="1628" 
d="M764 559h276l-79 313zM1110 268h-532l-168 -268h-418l987 1444h188l428 -1444h-417zM971 1610q-75 0 -123 -113l-168 19q0 170 73.5 263t180.5 93q69 0 146 -27.5t113 -40t60 -12.5q76 0 125 115l166 -21q0 -158 -72.5 -257t-181.5 -99q-74 0 -182.5 40t-136.5 40z" />
    <glyph glyph-name="Adieresis" unicode="&#xc4;" horiz-adv-x="1628" 
d="M1051 1700v-19q-8 -72 -63.5 -124t-125.5 -52t-113.5 42t-43.5 108v18q8 74 64.5 125t124.5 51q69 0 113 -42t44 -107zM1493 1700v-19q-8 -72 -63.5 -124t-125.5 -52t-113.5 44t-43.5 110v18q8 74 63.5 123t125.5 49q69 0 113 -42t44 -107zM764 559h276l-79 313z
M1110 268h-532l-168 -268h-418l987 1444h188l428 -1444h-417z" />
    <glyph glyph-name="Aring" unicode="&#xc5;" horiz-adv-x="1628" 
d="M807 1581q0 99 75.5 172.5t176.5 73.5t176.5 -73.5t75.5 -176.5q0 -66 -34 -121t-87 -88l405 -1368h-417l-68 268h-532l-168 -268h-418l934 1370q-119 74 -119 211zM764 559h276l-79 313zM1058 1460q50 0 84 34t34 85t-35 85t-83 34t-82 -35t-34 -85t33 -84t83 -34z" />
    <glyph glyph-name="AE" unicode="&#xc6;" horiz-adv-x="2177" 
d="M741 559h283l100 522h-53zM2142 330l-63 -330h-1164l46 240h-424l-150 -240h-418l987 1444h1360l-65 -330h-733l-50 -254h607l-62 -319h-606l-41 -211h776z" />
    <glyph glyph-name="Ccedilla" unicode="&#xc7;" horiz-adv-x="1429" 
d="M137 614q0 156 57.5 309.5t164 274.5t260 196.5t337.5 75.5t319.5 -74.5t221.5 -203.5l-321 -254q-37 78 -102.5 124t-148.5 46q-161 0 -275.5 -142.5t-114.5 -293.5q0 -152 81.5 -241t219.5 -89q74 0 152.5 45t133.5 123l258 -254q-213 -232 -499 -268q-2 -2 -2 -6
l-129 -248l-363 33l236 231q-219 50 -352.5 220.5t-133.5 395.5z" />
    <glyph glyph-name="Egrave" unicode="&#xc8;" horiz-adv-x="1366" 
d="M1333 330l-63 -330h-1164l281 1444h1120l-65 -330h-733l-50 -254h607l-62 -319h-606l-41 -211h776zM514 1876l414 33l213 -379h-228z" />
    <glyph glyph-name="Eacute" unicode="&#xc9;" horiz-adv-x="1366" 
d="M1333 330l-63 -330h-1164l281 1444h1120l-65 -330h-733l-50 -254h607l-62 -319h-606l-41 -211h776zM1051 1530h-228l213 379l414 -33z" />
    <glyph glyph-name="Ecircumflex" unicode="&#xca;" horiz-adv-x="1366" 
d="M1333 330l-63 -330h-1164l281 1444h1120l-65 -330h-733l-50 -254h607l-62 -319h-606l-41 -211h776zM924 1868h233l262 -338h-250l-172 166l-172 -166h-245z" />
    <glyph glyph-name="Edieresis" unicode="&#xcb;" horiz-adv-x="1366" 
d="M1333 330l-63 -330h-1164l281 1444h1120l-65 -330h-733l-50 -254h607l-62 -319h-606l-41 -211h776zM979 1700v-19q-8 -72 -63.5 -124t-125.5 -52t-113.5 42t-43.5 108v18q8 72 64 124t125 52t113 -42t44 -107zM1282 1849q52 0 95.5 -42t43.5 -107v-19q-8 -72 -63 -124
t-125 -52t-114 44t-44 110v18q8 74 63.5 123t143.5 49z" />
    <glyph glyph-name="Igrave" unicode="&#xcc;" horiz-adv-x="669" 
d="M514 0h-399l280 1444h400zM96 1876l414 33l213 -379h-227z" />
    <glyph glyph-name="Iacute" unicode="&#xcd;" horiz-adv-x="669" 
d="M514 0h-399l280 1444h400zM698 1530h-227l213 379l414 -33z" />
    <glyph glyph-name="Icircumflex" unicode="&#xce;" horiz-adv-x="669" 
d="M555 1868h233l263 -338h-250l-172 166l-172 -166h-246zM514 0h-399l280 1444h400z" />
    <glyph glyph-name="Idieresis" unicode="&#xcf;" horiz-adv-x="669" 
d="M590 1700v-19q-8 -72 -63.5 -124t-125.5 -52t-113.5 42t-43.5 108v18q8 72 64 124t125 52t113 -42t44 -107zM894 1849q52 0 95 -42t43 -107v-19q-8 -72 -63 -124t-125 -52t-114 44t-44 110v18q8 74 64 123t144 49zM514 0h-399l280 1444h400z" />
    <glyph glyph-name="Eth" unicode="&#xd0;" horiz-adv-x="1669" 
d="M1323 800q0 133 -76 213.5t-194 80.5h-248l-41 -215h252l-62 -316h-252l-40 -213h260q166 15 253 120t117.5 182.5t30.5 147.5zM1122 1444q266 0 433 -161.5t167 -405.5q0 -193 -67.5 -354t-183 -277.5t-266 -181t-316.5 -64.5h-682l108 563h-163l61 316h164l110 565h635
z" />
    <glyph glyph-name="Ntilde" unicode="&#xd1;" horiz-adv-x="1607" 
d="M1741 1444l-281 -1444h-188l-623 743l-143 -743h-400l281 1444h188l621 -744l145 744h400zM991 1610q-73 0 -123 -113l-168 19q0 170 74 263t180 93q70 0 147 -27.5t112.5 -40t60.5 -12.5q74 0 125 115l166 -21q0 -159 -73.5 -257.5t-180.5 -98.5q-75 0 -149.5 27.5
t-110 40t-60.5 12.5z" />
    <glyph glyph-name="Ograve" unicode="&#xd2;" horiz-adv-x="1701" 
d="M1333 760q0 149 -91.5 246.5t-242.5 97.5q-152 0 -278.5 -139t-126.5 -293q0 -155 91.5 -244.5t234.5 -89.5q75 0 150 35t133.5 93t94 137t35.5 157zM1032 1462q320 0 514.5 -188t194.5 -463q0 -193 -71 -347.5t-190.5 -262t-277.5 -164.5t-318 -57q-308 0 -505 184
t-197 452q0 168 63.5 322t179.5 270.5t275.5 185t331.5 68.5zM535 1876l413 33l213 -379h-227z" />
    <glyph glyph-name="Oacute" unicode="&#xd3;" horiz-adv-x="1701" 
d="M1333 760q0 149 -91.5 246.5t-242.5 97.5q-152 0 -278.5 -139t-126.5 -293q0 -155 91.5 -244.5t234.5 -89.5q75 0 150 35t133.5 93t94 137t35.5 157zM1032 1462q320 0 514.5 -188t194.5 -463q0 -193 -71 -347.5t-190.5 -262t-277.5 -164.5t-318 -57q-308 0 -505 184
t-197 452q0 168 63.5 322t179.5 270.5t275.5 185t331.5 68.5zM1133 1530h-228l213 379l414 -33z" />
    <glyph glyph-name="Ocircumflex" unicode="&#xd4;" horiz-adv-x="1701" 
d="M1333 760q0 149 -91.5 246.5t-242.5 97.5q-152 0 -278.5 -139t-126.5 -293q0 -155 91.5 -244.5t234.5 -89.5q75 0 150 35t133.5 93t94 137t35.5 157zM1032 1462q320 0 514.5 -188t194.5 -463q0 -193 -71 -347.5t-190.5 -262t-277.5 -164.5t-318 -57q-308 0 -505 184
t-197 452q0 168 63.5 322t179.5 270.5t275.5 185t331.5 68.5zM940 1868h234l303 -338h-250l-172 166l-172 -166h-246z" />
    <glyph glyph-name="Otilde" unicode="&#xd5;" horiz-adv-x="1701" 
d="M1333 760q0 149 -91.5 246.5t-242.5 97.5q-152 0 -278.5 -139t-126.5 -293q0 -155 91.5 -244.5t234.5 -89.5q75 0 150 35t133.5 93t94 137t35.5 157zM1032 1462q320 0 514.5 -188t194.5 -463q0 -193 -71 -347.5t-190.5 -262t-277.5 -164.5t-318 -57q-308 0 -505 184
t-197 452q0 168 63.5 322t179.5 270.5t275.5 185t331.5 68.5zM956 1610q-74 0 -122 -113l-168 19q0 170 73.5 263t180.5 93q69 0 146 -27.5t112.5 -40t60.5 -12.5q74 0 125 115l166 -21q0 -159 -73.5 -257.5t-180.5 -98.5q-74 0 -182.5 40t-137.5 40z" />
    <glyph glyph-name="Odieresis" unicode="&#xd6;" horiz-adv-x="1701" 
d="M1333 760q0 149 -91.5 246.5t-242.5 97.5q-152 0 -278.5 -139t-126.5 -293q0 -155 91.5 -244.5t234.5 -89.5q75 0 150 35t133.5 93t94 137t35.5 157zM1032 1462q320 0 514.5 -188t194.5 -463q0 -193 -71 -347.5t-190.5 -262t-277.5 -164.5t-318 -57q-308 0 -505 184
t-197 452q0 168 63.5 322t179.5 270.5t275.5 185t331.5 68.5zM1174 1700v-19q-8 -72 -63.5 -124t-125.5 -52t-114 42t-44 108v18q8 73 65 124.5t125 51.5q69 0 113 -42t44 -107zM1616 1700v-19q-8 -72 -63.5 -124t-125.5 -52t-113.5 44t-43.5 110v18q8 74 63.5 123t125.5 49
q69 0 113 -42t44 -107z" />
    <glyph glyph-name="multiply" unicode="&#xd7;" horiz-adv-x="1327" 
d="M1012 90l-267 330l-393 -330l-182 227l393 330l-266 330l272 225l265 -330l395 330l180 -225l-393 -330l266 -330z" />
    <glyph glyph-name="Oslash" unicode="&#xd8;" horiz-adv-x="1701" 
d="M727 365q56 -27 133 -27q154 0 273 112.5t135 270.5q12 95 -23 180zM904 1104q-113 0 -232 -122t-135 -302q-8 -80 26 -148l520 539q-66 33 -179 33zM798 -20q-185 0 -349 98l-74 -78h-324l219 229q-169 195 -141 451q16 162 92 305t191.5 248.5t262 167t306.5 61.5
q211 0 381 -104l84 86h323l-233 -240q170 -214 137 -483q-16 -154 -91 -289t-189.5 -235.5t-262 -158.5t-332.5 -58z" />
    <glyph glyph-name="Ugrave" unicode="&#xd9;" horiz-adv-x="1552" 
d="M592 535q0 -113 58 -158t182 -45t210 77.5t125 274.5l148 760h387l-168 -864q-46 -322 -261 -461t-523 -139q-257 0 -406 137.5t-149 374.5q0 41 6 88l166 864h387q-162 -852 -162 -909zM510 1876l414 33l213 -379h-228z" />
    <glyph glyph-name="Uacute" unicode="&#xda;" horiz-adv-x="1552" 
d="M592 535q0 -113 58 -158t182 -45t210 77.5t125 274.5l148 760h387l-168 -864q-46 -322 -261 -461t-523 -139q-257 0 -406 137.5t-149 374.5q0 41 6 88l166 864h387q-162 -852 -162 -909zM1118 1530h-227l213 379l414 -33z" />
    <glyph glyph-name="Ucircumflex" unicode="&#xdb;" horiz-adv-x="1552" 
d="M592 535q0 -113 58 -158t182 -45t210 77.5t125 274.5l148 760h387l-168 -864q-46 -322 -261 -461t-523 -139q-257 0 -406 137.5t-149 374.5q0 41 6 88l166 864h387q-162 -852 -162 -909zM985 1868h234l262 -338h-250l-172 166l-172 -166h-246z" />
    <glyph glyph-name="Udieresis" unicode="&#xdc;" horiz-adv-x="1552" 
d="M592 535q0 -113 58 -158t182 -45t210 77.5t125 274.5l148 760h387l-168 -864q-46 -322 -261 -461t-523 -139q-257 0 -406 137.5t-149 374.5q0 41 6 88l166 864h387q-162 -852 -162 -909zM1012 1706v-18q-8 -72 -63.5 -124.5t-125.5 -52.5t-113.5 42t-43.5 108v18
q8 74 64.5 125t124.5 51q69 0 113 -41.5t44 -107.5zM1454 1706v-18q-8 -72 -63 -124.5t-125 -52.5t-114 44t-44 110v18q8 74 63.5 123t125.5 49q69 0 113 -41.5t44 -107.5z" />
    <glyph glyph-name="Yacute" unicode="&#xdd;" horiz-adv-x="1480" 
d="M1096 1530h-228l213 379l414 -33zM1747 1444l-735 -959l-92 -485h-400l92 485l-354 959h453l182 -541l401 541h453z" />
    <glyph glyph-name="Thorn" unicode="&#xde;" horiz-adv-x="1396" 
d="M1069 797q0 153 -195 153h-186l-90 -458h188q122 0 202.5 93.5t80.5 211.5zM967 1270q238 0 370.5 -101.5t132.5 -296.5q0 -310 -213.5 -504t-523.5 -194h-196l-33 -174h-398l279 1434h397l-32 -164h217z" />
    <glyph glyph-name="germandbls" unicode="&#xdf;" horiz-adv-x="1300" 
d="M1403 588q0 -150 -61.5 -263.5t-159 -190.5t-215 -115.5t-230.5 -38.5h-29q-28 0 -46 4l61 315q131 0 213 74t82 178q0 127 -221 127l55 283q73 4 123.5 64t50.5 118q0 117 -134 117t-169 -67t-39 -89l-285 -1462h-387l271 1386q50 248 237.5 392.5t408.5 144.5
t342.5 -90t121.5 -258q0 -224 -179 -365q189 -88 189 -264z" />
    <glyph glyph-name="agrave" unicode="&#xe0;" horiz-adv-x="1363" 
d="M1004 733q-74 70 -194 70t-207 -98.5t-87 -221.5q0 -82 55 -126t131 -44q135 0 234 70zM129 410q0 141 49 273t139.5 233.5t216 162t267.5 60.5t268 -70l8 47h387l-215 -1116h-387l10 59q-154 -79 -269 -79q-219 0 -346.5 116t-127.5 314zM350 1552l414 33l213 -379h-227
z" />
    <glyph glyph-name="aacute" unicode="&#xe1;" horiz-adv-x="1363" 
d="M1004 733q-74 70 -194 70t-207 -98.5t-87 -221.5q0 -82 55 -126t131 -44q135 0 234 70zM129 410q0 141 49 273t139.5 233.5t216 162t267.5 60.5t268 -70l8 47h387l-215 -1116h-387l10 59q-154 -79 -269 -79q-219 0 -346.5 116t-127.5 314zM981 1204h-227l213 379l413 -33
z" />
    <glyph glyph-name="acircumflex" unicode="&#xe2;" horiz-adv-x="1363" 
d="M1004 733q-74 70 -194 70t-207 -98.5t-87 -221.5q0 -82 55 -126t131 -44q135 0 234 70zM129 410q0 141 49 273t139.5 233.5t216 162t267.5 60.5t268 -70l8 47h387l-215 -1116h-387l10 59q-154 -79 -269 -79q-219 0 -346.5 116t-127.5 314zM788 1540h234l262 -338h-250
l-172 166l-172 -166h-246z" />
    <glyph glyph-name="atilde" unicode="&#xe3;" horiz-adv-x="1363" 
d="M1004 733q-74 70 -194 70t-207 -98.5t-87 -221.5q0 -82 55 -126t131 -44q135 0 234 70zM129 410q0 141 49 273t139.5 233.5t216 162t267.5 60.5t268 -70l8 47h387l-215 -1116h-387l10 59q-154 -79 -269 -79q-219 0 -346.5 116t-127.5 314zM743 1288q-74 0 -122 -112
l-168 18q0 170 73.5 263t180.5 93q74 0 148.5 -27.5t110 -40t60.5 -12.5q74 0 125 115l166 -20q0 -159 -74 -258t-180 -99q-71 0 -179.5 40t-140.5 40z" />
    <glyph glyph-name="adieresis" unicode="&#xe4;" horiz-adv-x="1363" 
d="M1004 733q-74 70 -194 70t-207 -98.5t-87 -221.5q0 -82 55 -126t131 -44q135 0 234 70zM129 410q0 141 49 273t139.5 233.5t216 162t267.5 60.5t268 -70l8 47h387l-215 -1116h-387l10 59q-154 -79 -269 -79q-219 0 -346.5 116t-127.5 314zM842 1382v-18
q-8 -72 -63.5 -124t-125.5 -52t-113.5 42t-43.5 107v19q8 73 65 124.5t125 51.5t112 -42t44 -108zM1284 1382v-18q-8 -72 -63 -124t-125 -52t-114 44t-44 109v19q8 73 64 122.5t125 49.5t113 -42t44 -108z" />
    <glyph glyph-name="aring" unicode="&#xe5;" horiz-adv-x="1363" 
d="M1004 733q-74 70 -194 70t-207 -98.5t-87 -221.5q0 -82 55 -126t131 -44q135 0 234 70zM129 410q0 141 49 273t139.5 233.5t216 162t267.5 60.5t268 -70l8 47h387l-215 -1116h-387l10 59q-154 -79 -269 -79q-219 0 -346.5 116t-127.5 314zM920 1335q55 0 100 42t53 114
q0 49 -31.5 83t-87.5 34t-102.5 -42t-54.5 -110q0 -51 34 -86t89 -35zM730 1281q-71 71 -71 176t101.5 190.5t207.5 85.5t173 -65t67 -174t-96 -196.5t-204 -87.5q-107 0 -178 71z" />
    <glyph glyph-name="ae" unicode="&#xe6;" horiz-adv-x="2181" 
d="M1766 852q-79 0 -139 -54.5t-97 -146.5h385q10 92 -30 146.5t-119 54.5zM537 475q0 -82 46 -125t155 -43t218 76l76 350q-81 76 -192 76q-112 0 -207.5 -97.5t-95.5 -236.5zM166 412q0 164 62.5 297t160.5 228t219 147.5t246 52.5t248 -68l10 47h387l-16 -76
q185 99 348 99h2q211 0 335 -130t103.5 -308.5t-39.5 -247.5h-739q8 -183 201 -183q132 0 270 113l178 -178q-225 -225 -524 -225q-215 0 -336 108l-18 -88h-387l12 59q-154 -79 -280 -79q-224 0 -333.5 134t-109.5 298z" />
    <glyph glyph-name="ccedilla" unicode="&#xe7;" horiz-adv-x="1165" 
d="M135 429q0 150 64.5 277.5t168 222.5t235.5 151.5t270 56.5t243 -63.5t158 -172.5l-289 -223q-20 57 -66.5 91t-108.5 34q-116 0 -203 -98.5t-87 -210.5q0 -78 52.5 -129.5t128.5 -51.5q147 0 237 125l199 -221q-175 -197 -400 -229l-131 -252l-362 33l233 233
q-158 45 -250 161t-92 266z" />
    <glyph glyph-name="egrave" unicode="&#xe8;" horiz-adv-x="1239" 
d="M777 842q-71 0 -129 -50.5t-93 -121.5h369q14 78 -31 125t-116 47zM1280 697q0 -83 -37 -244h-731q10 -72 57 -125.5t140 -53.5q135 0 254 140l202 -197q-109 -123 -226.5 -180t-331.5 -57t-343 125t-129 317q0 292 194.5 503.5t504.5 211.5q215 0 330.5 -128t115.5 -312
zM330 1552l413 33l213 -379h-227z" />
    <glyph glyph-name="eacute" unicode="&#xe9;" horiz-adv-x="1239" 
d="M777 842q-71 0 -129 -50.5t-93 -121.5h369q14 78 -31 125t-116 47zM1280 697q0 -83 -37 -244h-731q10 -72 57 -125.5t140 -53.5q135 0 254 140l202 -197q-109 -123 -226.5 -180t-331.5 -57t-343 125t-129 317q0 292 194.5 503.5t504.5 211.5q215 0 330.5 -128t115.5 -312
zM981 1204h-227l213 379l413 -33z" />
    <glyph glyph-name="ecircumflex" unicode="&#xea;" horiz-adv-x="1239" 
d="M777 842q-71 0 -129 -50.5t-93 -121.5h369q14 78 -31 125t-116 47zM1280 697q0 -83 -37 -244h-731q10 -72 57 -125.5t140 -53.5q135 0 254 140l202 -197q-109 -123 -226.5 -180t-331.5 -57t-343 125t-129 317q0 292 194.5 503.5t504.5 211.5q215 0 330.5 -128t115.5 -312
zM786 1540h234l262 -338h-250l-172 166l-172 -166h-246z" />
    <glyph glyph-name="edieresis" unicode="&#xeb;" horiz-adv-x="1239" 
d="M777 842q-71 0 -129 -50.5t-93 -121.5h369q14 78 -31 125t-116 47zM1280 697q0 -83 -37 -244h-731q10 -72 57 -125.5t140 -53.5q135 0 254 140l202 -197q-109 -123 -226.5 -180t-331.5 -57t-343 125t-129 317q0 292 194.5 503.5t504.5 211.5q215 0 330.5 -128t115.5 -312
zM864 1382v-18q-8 -72 -63 -124t-125 -52t-114 42t-44 107v19q8 71 64.5 123.5t125.5 52.5t112.5 -42t43.5 -108zM1168 1532q52 0 95.5 -42t43.5 -108v-18q-8 -72 -63.5 -124t-125.5 -52t-113.5 44t-43.5 109v19q13 113 84 142.5t123 29.5z" />
    <glyph glyph-name="igrave" unicode="&#xec;" horiz-adv-x="614" 
d="M-4 1552l414 33l213 -379h-228zM307 1116h387l-215 -1116h-387z" />
    <glyph glyph-name="iacute" unicode="&#xed;" horiz-adv-x="614" 
d="M627 1204h-228l213 379l414 -33zM307 1116h387l-215 -1116h-387z" />
    <glyph glyph-name="icircumflex" unicode="&#xee;" horiz-adv-x="614" 
d="M438 1540h234l262 -338h-250l-172 166l-172 -166h-246zM307 1116h387l-215 -1116h-387z" />
    <glyph glyph-name="idieresis" unicode="&#xef;" horiz-adv-x="614" 
d="M479 1382v-18q-8 -72 -63.5 -124t-125.5 -52t-113.5 42t-43.5 107v19q8 71 64.5 123.5t125.5 52.5t112.5 -42t43.5 -108zM922 1382v-18q-8 -72 -63.5 -124t-125.5 -52t-114 44t-44 109v19q8 73 65 122.5t126 49.5q68 0 112 -42t44 -108zM307 1116h387l-215 -1116h-387z
" />
    <glyph glyph-name="eth" unicode="&#xf0;" horiz-adv-x="1343" 
d="M688 295q126 0 213.5 92t87.5 197q0 74 -55.5 123t-125.5 49q-127 0 -213.5 -91t-86.5 -196q0 -74 54 -124t126 -50zM1374 681q0 -146 -63.5 -273t-166 -222.5t-233.5 -150.5t-257 -55q-236 0 -381.5 124.5t-145.5 313.5q0 265 201.5 428.5t556.5 167.5l-64 114l-307 -98
q-29 49 -49 86t-35.5 64.5t-11.5 31.5l24 9q25 8 65 22t95 31.5t117 38.5l-131 231h413l68 -119l240 78l92 -184l-225 -74q86 -141 142 -279.5t56 -284.5z" />
    <glyph glyph-name="ntilde" unicode="&#xf1;" horiz-adv-x="1298" 
d="M705 1288q-75 0 -123 -112l-168 18q0 170 73.5 263t180.5 93q74 0 182.5 -40t136.5 -40q76 0 125 115l166 -20q0 -159 -74 -258t-180 -99q-71 0 -179.5 40t-139.5 40zM922 1137q213 0 306 -75t93 -247q0 -78 -23 -203l-118 -612h-387l118 612q25 121 -14 156t-99 35
q-108 0 -184 -60l-143 -743h-387l215 1116h387l-8 -43q127 64 244 64z" />
    <glyph glyph-name="ograve" unicode="&#xf2;" horiz-adv-x="1343" 
d="M696 313q132 0 215.5 83.5t83.5 189.5t-52.5 161.5t-124.5 55.5q-128 0 -214 -95.5t-86 -189.5t53 -149.5t125 -55.5zM824 1137q250 0 402 -139t152 -325q0 -339 -210.5 -516t-508.5 -177q-223 0 -374.5 138.5t-151.5 336.5q0 290 141.5 432.5t274.5 196t275 53.5z
M383 1552l414 33l213 -379h-228z" />
    <glyph glyph-name="oacute" unicode="&#xf3;" horiz-adv-x="1343" 
d="M696 313q132 0 215.5 83.5t83.5 189.5t-52.5 161.5t-124.5 55.5q-128 0 -214 -95.5t-86 -189.5t53 -149.5t125 -55.5zM824 1137q250 0 402 -139t152 -325q0 -339 -210.5 -516t-508.5 -177q-223 0 -374.5 138.5t-151.5 336.5q0 290 141.5 432.5t274.5 196t275 53.5z
M1001 1204h-227l213 379l414 -33z" />
    <glyph glyph-name="ocircumflex" unicode="&#xf4;" horiz-adv-x="1343" 
d="M696 313q132 0 215.5 83.5t83.5 189.5t-52.5 161.5t-124.5 55.5q-128 0 -214 -95.5t-86 -189.5t53 -149.5t125 -55.5zM824 1137q250 0 402 -139t152 -325q0 -339 -210.5 -516t-508.5 -177q-223 0 -374.5 138.5t-151.5 336.5q0 290 141.5 432.5t274.5 196t275 53.5z
M829 1540h234l262 -338h-250l-172 166l-172 -166h-246z" />
    <glyph glyph-name="otilde" unicode="&#xf5;" horiz-adv-x="1343" 
d="M696 313q132 0 215.5 83.5t83.5 189.5t-52.5 161.5t-124.5 55.5q-128 0 -214 -95.5t-86 -189.5t53 -149.5t125 -55.5zM824 1137q250 0 402 -139t152 -325q0 -339 -210.5 -516t-508.5 -177q-223 0 -374.5 138.5t-151.5 336.5q0 290 141.5 432.5t274.5 196t275 53.5z
M805 1288q-75 0 -123 -112l-168 18q0 170 74 263t180 93q74 0 182.5 -40t136.5 -40q76 0 125 115l166 -20q0 -158 -73 -257.5t-181 -99.5q-71 0 -179.5 40t-139.5 40z" />
    <glyph glyph-name="odieresis" unicode="&#xf6;" horiz-adv-x="1343" 
d="M696 313q132 0 215.5 83.5t83.5 189.5t-52.5 161.5t-124.5 55.5q-128 0 -214 -95.5t-86 -189.5t53 -149.5t125 -55.5zM824 1137q250 0 402 -139t152 -325q0 -339 -210.5 -516t-508.5 -177q-223 0 -374.5 138.5t-151.5 336.5q0 290 141.5 432.5t274.5 196t275 53.5z
M893 1382v-18q-8 -72 -63.5 -124t-125.5 -52t-113.5 42t-43.5 107v19q8 71 64.5 123.5t125.5 52.5q68 0 112 -42t44 -108zM1335 1382v-18q-8 -72 -63 -124t-125 -52t-114 44t-44 109v19q8 73 64 122.5t126 49.5q69 0 112.5 -42t43.5 -108z" />
    <glyph glyph-name="divide" unicode="&#xf7;" horiz-adv-x="1077" 
d="M536.5 20q-38.5 0 -71.5 13.5t-55.5 38t-32.5 58.5t-2 73t28.5 74.5t51 63.5t67.5 44t76 16t71.5 -14t55.5 -39.5t32 -59.5t1 -73t-28.5 -75t-50.5 -62.5t-67 -42t-75.5 -15.5zM723 967q-39 0 -72 13t-55.5 37.5t-32.5 58.5t-2 73t28.5 75t51.5 63.5t67.5 44t75.5 16.5
t72 -14.5t55.5 -40t31.5 -59.5t1 -73t-28.5 -74.5t-50 -62.5t-66.5 -42t-76 -15zM1100 524h-918l64 320h917z" />
    <glyph glyph-name="oslash" unicode="&#xf8;" horiz-adv-x="1343" 
d="M718 313q48 0 100 28t113.5 97.5t61.5 175.5q0 20 -2 29l-350 -319q29 -11 77 -11zM518 520v-24q0 -23 4 -31l355 323q-29 14 -80 14t-102.5 -27t-91.5 -71.5t-62.5 -99t-22.5 -84.5zM627 -20q-151 0 -275 77l-65 -59h-275l203 186q-82 111 -82 254.5t64.5 270.5t169 222
t235.5 150.5t283 55.5t284 -82l70 63h272l-213 -192q80 -109 80 -251t-64.5 -269t-169 -221.5t-235.5 -149.5t-282 -55z" />
    <glyph glyph-name="ugrave" unicode="&#xf9;" horiz-adv-x="1298" 
d="M549 416q1 -103 125 -103q60 0 103.5 26t80.5 54l143 723h388l-215 -1116h-388l9 43q-127 -63 -244 -63q-213 0 -312.5 81.5t-99.5 247.5q0 25 8.5 67t18.5 93t39.5 194t87.5 453h387q-31 -164 -51.5 -277.5t-34.5 -189.5t-29.5 -148t-15.5 -85zM340 1552l414 33
l213 -379h-228z" />
    <glyph glyph-name="uacute" unicode="&#xfa;" horiz-adv-x="1298" 
d="M549 416q1 -103 125 -103q60 0 103.5 26t80.5 54l143 723h388l-215 -1116h-388l9 43q-127 -63 -244 -63q-213 0 -312.5 81.5t-99.5 247.5q0 25 8.5 67t18.5 93t39.5 194t87.5 453h387q-31 -164 -51.5 -277.5t-34.5 -189.5t-29.5 -148t-15.5 -85zM963 1204h-228l213 379
l414 -33z" />
    <glyph glyph-name="ucircumflex" unicode="&#xfb;" horiz-adv-x="1298" 
d="M549 416q1 -103 125 -103q60 0 103.5 26t80.5 54l143 723h388l-215 -1116h-388l9 43q-127 -63 -244 -63q-213 0 -312.5 81.5t-99.5 247.5q0 25 8.5 67t18.5 93t39.5 194t87.5 453h387q-31 -164 -51.5 -277.5t-34.5 -189.5t-29.5 -148t-15.5 -85zM782 1540h234l262 -338
h-250l-172 166l-172 -166h-246z" />
    <glyph glyph-name="udieresis" unicode="&#xfc;" horiz-adv-x="1298" 
d="M549 416q1 -103 125 -103q60 0 103.5 26t80.5 54l143 723h388l-215 -1116h-388l9 43q-127 -63 -244 -63q-213 0 -312.5 81.5t-99.5 247.5q0 25 8.5 67t18.5 93t39.5 194t87.5 453h387q-31 -164 -51.5 -277.5t-34.5 -189.5t-29.5 -148t-15.5 -85zM831 1382v-18
q-8 -72 -63 -124t-125 -52t-114 42t-44 107v19q8 71 64.5 123.5t125.5 52.5t112.5 -42t43.5 -108zM1274 1382v-18q-8 -72 -63.5 -124t-125.5 -52t-113.5 44t-43.5 109v19q8 73 64 122.5t125 49.5t113 -42t44 -108z" />
    <glyph glyph-name="yacute" unicode="&#xfd;" horiz-adv-x="1282" 
d="M510 416q0 -103 124 -103q60 0 104 26t81 54l144 723h387l-166 -864q-42 -213 -78.5 -299t-83.5 -146.5t-120 -104.5t-176.5 -68.5t-229.5 -24.5t-194.5 5t-120.5 14.5t-100 24.5t-112 34l125 270q78 -20 162 -43t162 -23q78 -1 143 11q115 21 191 139q-123 -61 -240 -61
q-213 0 -312.5 81.5t-99.5 247.5q0 25 8.5 67t18.5 93t39.5 194t87.5 453h387q-31 -164 -51.5 -277.5t-34.5 -189.5t-29.5 -148t-15.5 -85zM913 1206h-227l213 379l414 -33z" />
    <glyph glyph-name="thorn" unicode="&#xfe;" horiz-adv-x="1384" 
d="M545 383q74 -70 192 -70t206.5 95.5t88.5 214.5q0 80 -54 130t-160 50t-206 -70zM945 1137q218 0 346 -112.5t128 -313.5q0 -141 -53 -273.5t-145.5 -234t-216 -162.5t-262.5 -61t-265 61l-78 -399h-387l371 1902h387l-90 -469q149 62 265 62z" />
    <glyph glyph-name="ydieresis" unicode="&#xff;" horiz-adv-x="1282" 
d="M510 416q0 -103 124 -103q60 0 104 26t81 54l144 723h387l-166 -864q-42 -213 -78.5 -299t-83.5 -146.5t-120 -104.5t-176.5 -68.5t-229.5 -24.5t-194.5 5t-120.5 14.5t-100 24.5t-112 34l125 270q78 -20 162 -43t162 -23q78 -1 143 11q115 21 191 139q-123 -61 -240 -61
q-213 0 -312.5 81.5t-99.5 247.5q0 25 8.5 67t18.5 93t39.5 194t87.5 453h387q-31 -164 -51.5 -277.5t-34.5 -189.5t-29.5 -148t-15.5 -85zM795 1382v-18q-8 -72 -63.5 -124t-125.5 -52t-113.5 42t-43.5 107v19q8 73 65 124.5t125 51.5t112 -42t44 -108zM1237 1382v-18
q-8 -72 -63.5 -124t-125.5 -52t-113.5 44t-43.5 109v19q8 73 64 122.5t125 49.5t113 -42t44 -108z" />
    <glyph glyph-name="dotlessi" unicode="&#x131;" horiz-adv-x="614" 
d="M494 0h-400l215 1108h400z" />
    <glyph glyph-name="Lslash" unicode="&#x141;" horiz-adv-x="1349" 
d="M199 811l161 45l115 588h399l-92 -471l387 108l-69 -362l-389 -109l-56 -291h693l-62 -319h-1091l94 494l-160 -45z" />
    <glyph glyph-name="lslash" unicode="&#x142;" horiz-adv-x="821" 
d="M182 811l162 45l115 588h399l-92 -471l184 55l-69 -362l-187 -56l-116 -610h-400l94 494l-159 -45z" />
    <glyph glyph-name="OE" unicode="&#x152;" horiz-adv-x="2207" 
d="M999 1094q-160 0 -286.5 -146t-126.5 -321q0 -117 70.5 -195t187.5 -82h166l143 744h-154zM186 590q0 140 57.5 296t170 280t277.5 201t378 77h1274l-66 -330h-733l-49 -254h606l-61 -319h-606l-41 -211h776l-64 -328h-1364q-247 16 -401 174.5t-154 413.5z" />
    <glyph glyph-name="oe" unicode="&#x153;" horiz-adv-x="2074" 
d="M694 307q127 0 210 94.5t83 193.5t-50.5 155.5t-124.5 56.5q-131 0 -211.5 -102t-80.5 -198t50 -148t124 -52zM1597 850q-76 0 -135 -54.5t-94 -146.5h385l2 27q0 80 -41 127t-117 47zM135 430q0 143 54.5 271t206 282t466.5 154q253 0 379 -166q187 166 415 166
t341.5 -124.5t113.5 -326.5q0 -115 -36 -235h-740q12 -183 203 -183q134 0 270 113l181 -178q-222 -226 -521 -226q-264 0 -393 166q-196 -166 -430 -166t-372 129.5t-138 323.5z" />
    <glyph glyph-name="Scaron" unicode="&#x160;" horiz-adv-x="1335" 
d="M250 414q208 -105 432 -105q117 0 174 25.5t57 89.5q0 39 -46.5 67.5t-160.5 54.5t-302.5 83.5t-188.5 283.5q0 248 170 398.5t467 150.5q184 0 318.5 -38t238.5 -81l-207 -305q-248 95 -414 95q-57 0 -108 -27.5t-51 -77.5q0 -49 48 -75.5t179 -55.5
q240 -66 352.5 -158.5t112.5 -248.5t-103 -333t-552 -177q-203 0 -322 25.5t-283 113.5zM952 1532h-233l-238 338h250l139 -166l205 166h246z" />
    <glyph glyph-name="scaron" unicode="&#x161;" horiz-adv-x="1052" 
d="M584 272q70 0 88 23t18 37q0 24 -29.5 37.5t-113.5 32.5q-173 39 -265 102t-92 180q0 213 137.5 333t374.5 120q145 0 249 -29t186 -64l-183 -272q-174 70 -317 70q-53 0 -70.5 -11.5t-21.5 -33.5q0 -29 35.5 -47t167.5 -46t216.5 -89.5t84.5 -184.5t-88.5 -286.5
t-442.5 -163.5q-160 0 -258 21.5t-213 86.5l195 274q184 -90 342 -90zM829 1200h-233l-238 338h250l140 -166l204 166h246z" />
    <glyph glyph-name="Ydieresis" unicode="&#x178;" horiz-adv-x="1480" 
d="M979 1700v-19q-8 -72 -63.5 -124t-125.5 -52t-113.5 42t-43.5 108v18q8 72 64 124t125 52t113 -42t44 -107zM1282 1849q52 0 95.5 -42t43.5 -107v-19q-8 -72 -63 -124t-125 -52t-114 44t-44 110v18q8 74 63.5 123t143.5 49zM1747 1444l-735 -959l-92 -485h-400l92 485
l-354 959h453l182 -541l401 541h453z" />
    <glyph glyph-name="Zcaron" unicode="&#x17d;" horiz-adv-x="1429" 
d="M1116 1532h-233l-238 338h250l139 -166l205 166h246zM684 319h705l-60 -319h-1268l29 166l897 958h-686l61 320h1244l-33 -174z" />
    <glyph glyph-name="zcaron" unicode="&#x17e;" horiz-adv-x="1153" 
d="M911 1200h-233l-238 338h250l139 -166l205 166h246zM649 305h484l-58 -305h-1057l33 178l625 633h-455l60 305h1028l-33 -178z" />
    <glyph glyph-name="florin" unicode="&#x192;" horiz-adv-x="1132" 
d="M1057.5 1192.5q-36.5 -36.5 -84.5 -164.5l-4 -8h188l-59 -305h-248l-100 -266q-67 -176 -204.5 -272.5t-289.5 -96.5q-71 0 -97 9t-42 13l57 297h16q108 0 148.5 51.5t62 103.5t50.5 126l12 35h-125l59 305h185l63 160q71 176 206 271t302.5 95t200.5 -49l-54 -274
q-68 6 -137 6t-105.5 -36.5z" />
    <glyph glyph-name="circumflex" unicode="&#x2c6;" 
d="M674 1540h233l238 -338h-250l-141 166l-203 -166h-246z" />
    <glyph glyph-name="caron" unicode="&#x2c7;" 
d="M842 1202h-234l-237 338h250l139 -166l205 166h245z" />
    <glyph glyph-name="breve" unicode="&#x2d8;" 
d="M795 1421q107 0 172 119l223 -20q-47 -166 -170 -244t-296 -78t-266 79t-75 243l231 20q8 -53 41 -86t140 -33z" />
    <glyph glyph-name="dotaccent" unicode="&#x2d9;" 
d="M918 1378v-18q-8 -72 -63.5 -124t-125.5 -52t-114 42t-44 107v19q8 72 65.5 124t125.5 52t112 -42t44 -108z" />
    <glyph glyph-name="ring" unicode="&#x2da;" 
d="M749.5 1335q57.5 0 105.5 40.5t58 96.5t-21.5 96t-89 40t-105.5 -40t-58 -96t21.5 -96.5t89 -40.5zM1002 1655q66 -78 47 -184t-119 -183.5t-205.5 -77.5t-173 78.5t-48 183.5t118 183t206.5 78t174 -78z" />
    <glyph glyph-name="ogonek" unicode="&#x2db;" 
d="M578 -342q-168 0 -244 58.5t-55 164.5q16 72 65 139h250q-13 -30 -23 -76t26 -78t130 -34l-33 -168q-66 -6 -116 -6z" />
    <glyph glyph-name="tilde" unicode="&#x2dc;" 
d="M590 1268q-76 0 -146 -113l-163 19q31 164 121.5 260t201.5 96q72 0 173 -40t130 -40q77 0 148 115l162 -21q-32 -160 -124 -258t-200 -98q-71 0 -142 27.5t-104 40t-57 12.5z" />
    <glyph glyph-name="hungarumlaut" unicode="&#x2dd;" 
d="M551 1581l297 -111l84 111l315 -117l-342 -260h-252l164 221l-289 -221h-254z" />
    <glyph glyph-name="uni037E" unicode="&#x37e;" horiz-adv-x="602" 
d="M518 204q0 -208 -132 -338t-361 -142l-25 157q111 0 159 29t68 72q-61 14 -97 58t-36 100q0 107 76.5 182t179.5 79q76 0 122 -48t46 -149zM459 1118q88 0 144 -56t56 -140q-8 -99 -72.5 -163.5t-152.5 -64.5t-143 58t-54 124q2 112 68 177t154 65z" />
    <glyph glyph-name="tonos" unicode="&#x384;" 
d="M688 1147h-227l213 379l413 -33z" />
    <glyph glyph-name="dieresistonos" unicode="&#x385;" horiz-adv-x="1167" 
d="M561 1374v-18q-8 -72 -63.5 -124t-125.5 -52t-113.5 42t-43.5 107v19q8 71 64.5 123.5t125.5 52.5t112.5 -42t43.5 -108zM1212 1524q52 0 96 -42t44 -108v-18q-8 -72 -63.5 -124t-125.5 -52t-113.5 44t-43.5 109v19q13 113 83.5 142.5t122.5 29.5zM705 1642l288 -67
l-192 -369h-193z" />
    <glyph glyph-name="Alphatonos" unicode="&#x386;" horiz-adv-x="1628" 
d="M764 559h276l-79 313zM1110 268h-532l-168 -268h-418l987 1444h188l428 -1444h-417zM375 1100h-228l213 379l414 -33z" />
    <glyph glyph-name="anoteleia" unicode="&#x387;" horiz-adv-x="581" 
d="M273 430q-89 0 -144 57t-54 123q2 110 68 176t154 66t144.5 -56.5t56.5 -140.5q-8 -99 -72 -162t-153 -63z" />
    <glyph glyph-name="Epsilontonos" unicode="&#x388;" horiz-adv-x="1366" 
d="M1333 330l-63 -330h-1164l281 1444h1120l-65 -330h-733l-50 -254h607l-62 -319h-606l-41 -211h776zM-137 1100h-228l213 379l414 -33z" />
    <glyph glyph-name="Etatonos" unicode="&#x389;" horiz-adv-x="1558" 
d="M1692 1444l-281 -1444h-387l61 317h-530l-61 -317h-388l281 1444h387l-160 -821h531l160 821h387zM-117 1100h-227l213 379l414 -33z" />
    <glyph glyph-name="Iotatonos" unicode="&#x38a;" horiz-adv-x="669" 
d="M514 0h-399l280 1444h400zM-96 1100h-228l213 379l414 -33z" />
    <glyph glyph-name="Omicrontonos" unicode="&#x38c;" horiz-adv-x="1701" 
d="M1333 760q0 149 -91.5 246.5t-242.5 97.5q-152 0 -278.5 -139t-126.5 -293q0 -155 91.5 -244.5t234.5 -89.5q75 0 150 35t133.5 93t94 137t35.5 157zM1032 1462q320 0 514.5 -188t194.5 -463q0 -193 -71 -347.5t-190.5 -262t-277.5 -164.5t-318 -57q-308 0 -505 184
t-197 452q0 168 63.5 322t179.5 270.5t275.5 185t331.5 68.5zM72 1100h-228l213 379l414 -33z" />
    <glyph glyph-name="Upsilontonos" unicode="&#x38e;" horiz-adv-x="1480" 
d="M1765 1444l-735 -959l-92 -485h-399l92 485l-355 959h453l182 -541l402 541h452zM-207 1100h-227l213 379l414 -33z" />
    <glyph glyph-name="Omegatonos" unicode="&#x38f;" horiz-adv-x="1697" 
d="M176 711q0 137 58.5 280.5t232.5 306t588 162.5q309 0 489 -150t180 -415q0 -207 -77.5 -337t-233.5 -222h223l-51 -336h-661l51 346q233 83 288.5 232.5t55.5 221.5q0 138 -80.5 221t-250.5 83t-294.5 -139.5t-124.5 -327.5q0 -96 51.5 -176t165.5 -115l-51 -346h-661
l51 336h219q-168 107 -168 375zM43 1100h-227l213 379l413 -33z" />
    <glyph glyph-name="iotadieresistonos" unicode="&#x390;" horiz-adv-x="614" 
d="M354 1374v-18q-8 -72 -63 -124t-125 -52t-114 42t-44 107v19q8 71 64.5 123.5t125.5 52.5t112.5 -42t43.5 -108zM1145 1374v-18q-8 -72 -63.5 -124t-125.5 -52t-113.5 44t-43.5 109v19q8 73 64 122.5t125 49.5t113 -42t44 -108zM498 1642l288 -67l-192 -369h-193z
M307 1116h387l-215 -1116h-387z" />
    <glyph glyph-name="Alpha" unicode="&#x391;" horiz-adv-x="1628" 
d="M764 559h276l-79 313zM1110 268h-532l-168 -268h-418l987 1444h188l428 -1444h-417z" />
    <glyph glyph-name="Beta" unicode="&#x392;" horiz-adv-x="1464" 
d="M788 330q137 0 200 45t79 125q22 111 -61.5 138.5t-149.5 27.5h-231l-66 -336h229zM827 946q57 0 89 24.5t38 59.5q8 35 -13 59.5t-81 24.5h-151l-33 -168h151zM1079 1444q125 0 198.5 -88.5t49.5 -216.5q-16 -92 -56 -150.5t-93 -81.5q160 -24 241.5 -148.5t56 -307.5
t-170 -317t-353.5 -134h-846l281 1444h692z" />
    <glyph glyph-name="Gamma" unicode="&#x393;" horiz-adv-x="1265" 
d="M1415 1124h-692l-217 -1124h-400l281 1444h1092z" />
    <glyph glyph-name="uni0394" unicode="&#x394;" horiz-adv-x="1607" 
d="M1071 319l-125 535l-334 -535h459zM1565 0h-1569l973 1444h184z" />
    <glyph glyph-name="Epsilon" unicode="&#x395;" horiz-adv-x="1366" 
d="M1333 330l-63 -330h-1164l281 1444h1120l-65 -330h-733l-50 -254h607l-62 -319h-606l-41 -211h776z" />
    <glyph glyph-name="Zeta" unicode="&#x396;" horiz-adv-x="1429" 
d="M684 319h705l-60 -319h-1268l29 166l897 958h-686l61 320h1244l-33 -174z" />
    <glyph glyph-name="Eta" unicode="&#x397;" horiz-adv-x="1558" 
d="M1692 1444l-281 -1444h-387l61 317h-530l-61 -317h-388l281 1444h387l-160 -821h531l160 821h387z" />
    <glyph glyph-name="Theta" unicode="&#x398;" horiz-adv-x="1701" 
d="M1288 760q0 149 -91.5 246.5t-242.5 97.5t-278 -138t-127 -311q0 -138 91.5 -227.5t234.5 -89.5q75 0 150 35t133.5 93t94 137t35.5 157zM988 1462q320 0 514 -188t194 -463q0 -193 -71 -347.5t-190.5 -262t-278 -164.5t-318.5 -57q-308 0 -504.5 184t-196.5 452
q0 168 63.5 322t179.5 270.5t276 185t332 68.5zM713 866h440l-35 -291h-440z" />
    <glyph glyph-name="Iota" unicode="&#x399;" horiz-adv-x="669" 
d="M514 0h-399l280 1444h400z" />
    <glyph glyph-name="Kappa" unicode="&#x39a;" horiz-adv-x="1495" 
d="M1487 0h-520l-297 426l-115 -109l-61 -317h-388l281 1444h387l-112 -576l610 578h477l-766 -723z" />
    <glyph glyph-name="Lambda" unicode="&#x39b;" horiz-adv-x="1585" 
d="M1141 1444l395 -1444h-416l-188 834l-512 -834h-416l957 1444h180z" />
    <glyph glyph-name="Mu" unicode="&#x39c;" horiz-adv-x="1777" 
d="M1911 1444l-281 -1444h-399l115 600l-451 -461l-274 461l-115 -600h-400l281 1444h188l431 -729l716 729h189z" />
    <glyph glyph-name="Nu" unicode="&#x39d;" horiz-adv-x="1607" 
d="M1741 1444l-281 -1444h-188l-623 743l-143 -743h-400l281 1444h188l621 -744l145 744h400z" />
    <glyph glyph-name="Xi" unicode="&#x39e;" horiz-adv-x="1449" 
d="M1421 319l-61 -319h-1282l61 319h1282zM1567 1124h-1262l64 320h1261zM328 582l53 280h1008l-54 -280h-1007z" />
    <glyph glyph-name="Omicron" unicode="&#x39f;" horiz-adv-x="1701" 
d="M1333 760q0 149 -91.5 246.5t-242.5 97.5q-152 0 -278.5 -139t-126.5 -293q0 -155 91.5 -244.5t234.5 -89.5q75 0 150 35t133.5 93t94 137t35.5 157zM1032 1462q320 0 514.5 -188t194.5 -463q0 -193 -71 -347.5t-190.5 -262t-277.5 -164.5t-318 -57q-308 0 -505 184
t-197 452q0 168 63.5 322t179.5 270.5t275.5 185t331.5 68.5z" />
    <glyph glyph-name="Pi" unicode="&#x3a0;" horiz-adv-x="1536" 
d="M1671 1444l-280 -1444h-387l217 1124h-508l-217 -1124h-387l280 1444h1282z" />
    <glyph glyph-name="Rho" unicode="&#x3a1;" horiz-adv-x="1378" 
d="M1075 930q0 80 -45 137t-158 57h-149l-102 -528h114q147 8 243.5 92t96.5 242zM1004 1444q262 0 381.5 -114.5t119.5 -299.5q0 -354 -210 -533.5t-570 -179.5h-158l-61 -317h-400l281 1444h617z" />
    <glyph glyph-name="Sigma" unicode="&#x3a3;" horiz-adv-x="1413" 
d="M1579 1444l-63 -320h-654l219 -403l-387 -402h684l-61 -319h-1262l33 174l545 547l-299 549l35 174h1210z" />
    <glyph glyph-name="Tau" unicode="&#x3a4;" horiz-adv-x="1351" 
d="M1501 1124h-430l-215 -1124h-399l215 1124h-428l61 320h1258z" />
    <glyph glyph-name="Upsilon" unicode="&#x3a5;" horiz-adv-x="1480" 
d="M1765 1444l-735 -959l-92 -485h-399l92 485l-355 959h453l182 -541l402 541h452z" />
    <glyph glyph-name="Phi" unicode="&#x3a6;" horiz-adv-x="1873" 
d="M1522 826q0 81 -58.5 138.5t-177.5 57.5l-112 -578q144 0 246 113t102 269zM551 643q0 -82 57.5 -140.5t177.5 -58.5l113 578q-147 -4 -247.5 -114t-100.5 -265zM1913 848q0 -355 -230 -539.5t-575 -204.5l-16 -104h-387l16 104q-242 0 -400.5 151t-158.5 376
q0 147 61.5 280t169 233.5t254 159t318.5 58.5l14 82h387l-14 -82q243 0 402 -147.5t159 -366.5z" />
    <glyph glyph-name="Chi" unicode="&#x3a7;" horiz-adv-x="1499" 
d="M1276 1444h438l-586 -713l330 -731h-448l-197 438l-360 -438h-449l610 731l-313 713h440l187 -420z" />
    <glyph glyph-name="Psi" unicode="&#x3a8;" horiz-adv-x="1796" 
d="M240 764q0 74 10 131l104 549h387l-104 -549q-6 -35 -6 -64q0 -78 41 -126t139 -48l154 787h387l-154 -787q121 0 186.5 74t88.5 184l104 529h387l-106 -549q-62 -314 -259.5 -446t-465.5 -132l-62 -317h-387l61 317q-215 0 -321.5 99.5t-145 186.5t-38.5 161z" />
    <glyph glyph-name="uni03A9" unicode="&#x3a9;" horiz-adv-x="1697" 
d="M176 711q0 137 58.5 280.5t232.5 306t588 162.5q309 0 489 -150t180 -415q0 -207 -77.5 -337t-233.5 -222h223l-51 -336h-661l51 346q233 83 288.5 232.5t55.5 221.5q0 138 -80.5 221t-250.5 83t-294.5 -139.5t-124.5 -327.5q0 -96 51.5 -176t165.5 -115l-51 -346h-661
l51 336h219q-168 107 -168 375z" />
    <glyph glyph-name="Iotadieresis" unicode="&#x3aa;" horiz-adv-x="669" 
d="M590 1700v-19q-8 -72 -63.5 -124t-125.5 -52t-113.5 42t-43.5 108v18q8 72 64 124t125 52t113 -42t44 -107zM894 1849q52 0 95 -42t43 -107v-19q-8 -72 -63 -124t-125 -52t-114 44t-44 110v18q8 74 64 123t144 49zM514 0h-399l280 1444h400z" />
    <glyph glyph-name="Upsilondieresis" unicode="&#x3ab;" horiz-adv-x="1480" 
d="M1765 1444l-735 -959l-92 -485h-399l92 485l-355 959h453l182 -541l402 541h452zM991 1700v-19q-8 -72 -63.5 -124t-125.5 -52t-113.5 42t-43.5 108v18q8 72 64 124t126 52q69 0 112.5 -42t43.5 -107zM1434 1700v-19q-8 -72 -63.5 -124t-125.5 -52t-114 44t-44 110v18
q8 74 64.5 123t125.5 49t113 -42t44 -107z" />
    <glyph glyph-name="alphatonos" unicode="&#x3ac;" horiz-adv-x="1382" 
d="M1004 733q-74 70 -194 70t-207 -98.5t-87 -221.5q0 -82 55 -126t131 -44q135 0 234 70zM129 410q0 141 49 273t139.5 233.5t216 162t267.5 60.5t268 -70l8 47h387l-215 -1116h-387l10 59q-154 -79 -269 -79q-219 0 -346.5 116t-127.5 314zM981 1204h-227l213 379l413 -33
z" />
    <glyph glyph-name="epsilontonos" unicode="&#x3ad;" horiz-adv-x="1183" 
d="M920 1204h-228l213 379l414 -33zM600 743q0 -77 164 -77h180l-39 -201h-231q-130 0 -167 -63t3 -96.5t112 -33.5q114 0 199 20.5t223 76.5l103 -244q-74 -33 -132.5 -59.5t-153 -56t-308.5 -29.5q-213 0 -335 54t-122 189t77 222t192 126q-129 59 -129 312.5t575 253.5
q145 0 264 -39t223 -92l-192 -230q-174 72 -278 72q-208 0 -226 -84q-2 -6 -2 -21z" />
    <glyph glyph-name="etatonos" unicode="&#x3ae;" horiz-adv-x="1298" 
d="M940 1204h-227l213 379l413 -33zM922 1137q213 0 306 -75t93 -247q0 -78 -23 -203l-118 -612h-387l118 612q25 121 -14 156t-99 35q-108 0 -184 -60l-143 -743h-387l215 1116h387l-8 -43q127 64 244 64z" />
    <glyph glyph-name="iotatonos" unicode="&#x3af;" horiz-adv-x="614" 
d="M631 1204h-228l213 379l414 -33zM307 1116h387l-215 -1116h-387z" />
    <glyph glyph-name="upsilondieresistonos" unicode="&#x3b0;" horiz-adv-x="1271" 
d="M674 1374v-18q-8 -72 -63.5 -124t-125.5 -52t-113.5 42t-43.5 107v19q8 71 64.5 123.5t125.5 52.5q68 0 112 -42t44 -108zM1464 1374v-18q-8 -72 -63 -124t-125 -52t-114 44t-44 109v19q8 73 64 122.5t126 49.5q69 0 112.5 -42t43.5 -108zM817 1642l289 -67l-193 -369
h-192zM618 -20q-200 0 -333 100.5t-133 277.5q0 45 8 91l129 667h387l-113 -586q-16 -93 -16 -132t25.5 -68t91.5 -29t100.5 18.5t55 50t30.5 73.5t20 87l113 586h389l-129 -667q-45 -219 -182 -312.5t-242 -125t-201 -31.5z" />
    <glyph glyph-name="alpha" unicode="&#x3b1;" horiz-adv-x="1382" 
d="M1004 733q-74 70 -194 70t-207 -98.5t-87 -221.5q0 -82 55 -126t131 -44q135 0 234 70zM129 410q0 141 49 273t139.5 233.5t216 162t267.5 60.5t268 -70l8 47h387l-215 -1116h-387l10 59q-154 -79 -269 -79q-219 0 -346.5 116t-127.5 314z" />
    <glyph glyph-name="beta" unicode="&#x3b2;" horiz-adv-x="1378" 
d="M547 383q89 -84 197 -84t192 68.5t84 183.5q0 59 -47 93t-139 34h-230zM1030 1148q0 112 -138 112q-105 0 -150 -47.5t-56 -108.5l-27 -143h203q78 4 123 64.5t45 122.5zM1405 588q0 -318 -201 -463t-465 -145q-142 0 -260 61l-78 -399h-387l271 1386q49 252 213 395.5
t446 143.5q316 0 383.5 -132t67.5 -215t-12.5 -137.5t-35 -94.5t-55 -70.5t-73.5 -63.5q186 -94 186 -266z" />
    <glyph glyph-name="gamma" unicode="&#x3b3;" horiz-adv-x="1280" 
d="M1446 1116l-635 -1124l-70 -350h-387l72 358l-211 1116h395l111 -588l332 588h393z" />
    <glyph glyph-name="delta" unicode="&#x3b4;" horiz-adv-x="1341" 
d="M688 295q126 0 213.5 92t87.5 197q0 74 -55.5 123t-125.5 49q-127 0 -213.5 -91t-86.5 -196q0 -74 54 -124t126 -50zM651 -20q-233 0 -378.5 124.5t-145.5 313.5q0 123 49 229.5t180 227.5t400 131l-334 360l35 178h940l-60 -305h-376q88 -88 162.5 -157.5t161.5 -170.5
t87 -258q0 -156 -64.5 -282.5t-168 -213.5t-234.5 -132t-254 -45z" />
    <glyph glyph-name="epsilon" unicode="&#x3b5;" horiz-adv-x="1183" 
d="M600 743q0 -77 164 -77h180l-39 -201h-231q-130 0 -167 -63t3 -96.5t112 -33.5q114 0 199 20.5t223 76.5l103 -244q-74 -33 -132.5 -59.5t-153 -56t-308.5 -29.5q-213 0 -335 54t-122 189t77 222t192 126q-129 59 -129 312.5t575 253.5q145 0 264 -39t223 -92l-192 -230
q-174 72 -278 72q-208 0 -226 -84q-2 -6 -2 -21z" />
    <glyph glyph-name="zeta" unicode="&#x3b6;" horiz-adv-x="1103" 
d="M102 330q0 235 216 472t552 437h-501l59 305h997l-45 -233l-75 -54q-334 -237 -565.5 -449t-231.5 -396q0 -53 50 -78t124 -41.5t156 -32.5t147 -49q98 -58 98 -186t-117.5 -231t-248.5 -148q-55 -23 -105 -31l-92 188q146 99 154 142q0 34 -77 45q-495 66 -495 340z" />
    <glyph glyph-name="eta" unicode="&#x3b7;" horiz-adv-x="1298" 
d="M922 1137q213 0 306 -75t93 -247q0 -78 -23 -203l-118 -612h-387l118 612q25 121 -14 156t-99 35q-108 0 -184 -60l-143 -743h-387l215 1116h387l-8 -43q127 64 244 64z" />
    <glyph glyph-name="theta" unicode="&#x3b8;" horiz-adv-x="1314" 
d="M701 281q46 0 94.5 33.5t102 107.5t77.5 186q-160 -2 -182 -2h-195q-49 0 -59 -2q-11 -32 -11 -79q0 -48 11.5 -92t33 -77.5t52 -54t76.5 -20.5zM870 1241q-46 0 -94.5 -33.5t-102 -107.5t-77.5 -187q391 0 440 7q8 36 8 80t-12 88.5t-33.5 78t-52 54t-76.5 20.5z
M922 1544q221 0 347 -141.5t126 -392.5q0 -250 -84.5 -486.5t-257.5 -390t-418 -153.5q-204 0 -330.5 141t-126.5 389t107 555.5t314 393t323 85.5z" />
    <glyph glyph-name="iota" unicode="&#x3b9;" horiz-adv-x="614" 
d="M307 1116h387l-215 -1116h-387z" />
    <glyph glyph-name="kappa" unicode="&#x3ba;" horiz-adv-x="1243" 
d="M1225 0h-426l-148 381l-131 -121l-49 -260h-387l215 1114h387l-68 -346l367 348h445l-467 -440z" />
    <glyph glyph-name="lambda" unicode="&#x3bb;" horiz-adv-x="1228" 
d="M659 1108q-45 168 -74 168h-104q-42 0 -102 -10l55 286q75 15 121 15q186 0 298 -98.5t138 -272.5l211 -1196h-416l-63 645l-301 -645h-414z" />
    <glyph glyph-name="uni03BC" unicode="&#x3bc;" horiz-adv-x="1306" 
d="M574.5 359.5q25.5 -46.5 119.5 -46.5t170 60l144 743h387l-215 -1116h-387l6 35q-100 -55 -184 -55t-142 32l-74 -370h-387l287 1474h387l-119 -612q-18 -98 7.5 -144.5z" />
    <glyph glyph-name="nu" unicode="&#x3bd;" horiz-adv-x="1280" 
d="M1454 1116l-745 -1116h-179l-315 1116h403l125 -483l308 483h403z" />
    <glyph glyph-name="xi" unicode="&#x3be;" horiz-adv-x="1148" 
d="M367 942q0 90 45 167t106 130h-174l59 305h1018l-45 -233q-269 -58 -381 -104t-174.5 -96.5t-62.5 -108.5t73.5 -117.5t342.5 -59.5l-50 -254q-289 -8 -445.5 -61t-156.5 -139q0 -49 52.5 -69.5t129 -30t246.5 -27.5t170 -187q0 -84 -68 -201.5t-288 -209.5
q-51 -23 -96 -31l-111 188q137 94 145 138q0 35 -80 47q-220 33 -368 108.5t-148 232.5q0 156 108 257t269 159q-116 77 -116 197z" />
    <glyph glyph-name="omicron" unicode="&#x3bf;" horiz-adv-x="1343" 
d="M696 313q132 0 215.5 83.5t83.5 189.5t-52.5 161.5t-124.5 55.5q-128 0 -214 -95.5t-86 -189.5t53 -149.5t125 -55.5zM824 1137q250 0 402 -139t152 -325q0 -339 -210.5 -516t-508.5 -177q-223 0 -374.5 138.5t-151.5 336.5q0 290 141.5 432.5t274.5 196t275 53.5z" />
    <glyph glyph-name="pi" unicode="&#x3c0;" horiz-adv-x="1290" 
d="M1380 1116l-215 -1116h-389l154 799h-305l-154 -799h-387l215 1116h1081z" />
    <glyph glyph-name="rho" unicode="&#x3c1;" horiz-adv-x="1345" 
d="M512 383q74 -70 194 -70q119 0 206 95.5t87 220.5q0 78 -49 126t-127 48t-132 -27.5t-88 -64.5t-46 -99zM863 1137q233 0 377 -118.5t144 -322.5q0 -158 -54 -290t-146 -227t-216 -147t-262 -52t-262 61l-77 -399h-387l182 927q52 257 189.5 370.5t261.5 155.5t250 42z
" />
    <glyph glyph-name="uni03C2" unicode="&#x3c2;" horiz-adv-x="1159" 
d="M135 436q0 141 56.5 269.5t155.5 223.5t233.5 151.5t279.5 56.5t253 -61.5t161 -174.5l-289 -223q-20 57 -66.5 91t-109.5 34q-122 0 -206.5 -102t-84.5 -214q0 -74 44 -116.5t108.5 -71.5t135.5 -51.5t126 -57.5q100 -49 100 -161q0 -152 -156.5 -278.5t-316.5 -156.5
l-92 189q173 115 180 151q0 23 -53 33q-197 29 -328 156t-131 313z" />
    <glyph glyph-name="sigma" unicode="&#x3c3;" horiz-adv-x="1392" 
d="M698 313q125 0 212 98.5t87 209.5q0 78 -52.5 130t-124.5 52q-126 0 -213 -98.5t-87 -210.5q0 -78 53 -129.5t125 -51.5zM1358 621q0 -145 -66.5 -264t-169 -203t-229.5 -129t-243 -45q-228 0 -371.5 130.5t-143.5 325.5q0 143 57.5 267t157 216.5t232.5 144.5t284 52
h656l-60 -305h-219q115 -74 115 -190z" />
    <glyph glyph-name="tau" unicode="&#x3c4;" horiz-adv-x="1048" 
d="M1141 811h-287l-156 -811h-387l156 811h-291l60 305h964z" />
    <glyph glyph-name="upsilon" unicode="&#x3c5;" horiz-adv-x="1271" 
d="M618 -20q-200 0 -333 100.5t-133 277.5q0 45 8 91l129 667h387l-113 -586q-16 -93 -16 -132t25.5 -68t91.5 -29t100.5 18.5t55 50t30.5 73.5t20 87l113 586h389l-129 -667q-45 -219 -182 -312.5t-242 -125t-201 -31.5z" />
    <glyph glyph-name="phi" unicode="&#x3c6;" horiz-adv-x="1718" 
d="M1382 660q0 70 -42 125t-148 55h-10l-109 -564q144 8 226.5 122.5t82.5 261.5zM131 458q0 112 85 304.5t441 337.5l70 -277q-152 -50 -183.5 -179.5t-31.5 -193.5t43 -119t147 -55h11l161 840q128 25 256 25q276 0 453.5 -111t177.5 -338q0 -164 -64.5 -294t-170 -222
t-239.5 -143t-271 -53l-68 -338h-360l67 338q-224 0 -374 135t-150 343z" />
    <glyph glyph-name="chi" unicode="&#x3c7;" horiz-adv-x="1206" 
d="M408 0h-412l483 575l-260 541h428l103 -256l200 256h428l-471 -541l264 -575h-413l-125 258z" />
    <glyph glyph-name="psi" unicode="&#x3c8;" horiz-adv-x="1699" 
d="M145 350q0 30 11 99l129 667h387l-113 -586q-8 -40 -8 -90t32.5 -92.5t116.5 -46.5l187 961h370l-186 -961q153 0 187 89t45 140l112 586h387l-129 -667q-29 -147 -130 -264t-267 -171q-96 -29 -266 -34l-68 -338h-371l68 338q-326 0 -410 126.5t-84 243.5z" />
    <glyph glyph-name="omega" unicode="&#x3c9;" horiz-adv-x="1771" 
d="M1135 427q0 -114 92 -114q89 0 142.5 104.5t53.5 205.5q0 137 -137 172l66 342q202 0 330 -112.5t128 -313.5q0 -318 -168.5 -524.5t-447.5 -206.5q-145 0 -212 61t-83 147q-131 -208 -373 -208q-195 0 -296 105t-101 279t51 311.5t141.5 239t216.5 161t275 61.5
l-65 -342q-112 -34 -173 -137t-61 -224t100 -121q116 0 142 99.5t35 138.5l28 154h361l-29 -154q-16 -78 -16 -124z" />
    <glyph glyph-name="iotadieresis" unicode="&#x3ca;" horiz-adv-x="614" 
d="M483 1382v-18q-8 -72 -63 -124t-125 -52t-114 42t-44 107v19q8 71 64.5 123.5t125.5 52.5t112.5 -42t43.5 -108zM786 1532q52 0 96 -42t44 -108v-18q-8 -72 -63.5 -124t-125.5 -52t-113.5 44t-43.5 109v19q13 113 83.5 142.5t122.5 29.5zM307 1116h387l-215 -1116h-387z
" />
    <glyph glyph-name="upsilondieresis" unicode="&#x3cb;" horiz-adv-x="1271" 
d="M811 1382v-18q-8 -72 -63.5 -124t-125.5 -52t-113.5 42t-43.5 107v19q8 71 64.5 123.5t125.5 52.5q68 0 112 -42t44 -108zM1253 1382v-18q-8 -72 -63 -124t-125 -52t-114 44t-44 109v19q8 73 64 122.5t126 49.5q69 0 112.5 -42t43.5 -108zM618 -20q-200 0 -333 100.5
t-133 277.5q0 45 8 91l129 667h387l-113 -586q-16 -93 -16 -132t25.5 -68t91.5 -29t100.5 18.5t55 50t30.5 73.5t20 87l113 586h389l-129 -667q-45 -219 -182 -312.5t-242 -125t-201 -31.5z" />
    <glyph glyph-name="omicrontonos" unicode="&#x3cc;" horiz-adv-x="1343" 
d="M696 313q132 0 215.5 83.5t83.5 189.5t-52.5 161.5t-124.5 55.5q-128 0 -214 -95.5t-86 -189.5t53 -149.5t125 -55.5zM824 1137q250 0 402 -139t152 -325q0 -339 -210.5 -516t-508.5 -177q-223 0 -374.5 138.5t-151.5 336.5q0 290 141.5 432.5t274.5 196t275 53.5z
M1001 1204h-227l213 379l414 -33z" />
    <glyph glyph-name="upsilontonos" unicode="&#x3cd;" horiz-adv-x="1271" 
d="M954 1204h-227l213 379l414 -33zM618 -20q-200 0 -333 100.5t-133 277.5q0 45 8 91l129 667h387l-113 -586q-16 -93 -16 -132t25.5 -68t91.5 -29t100.5 18.5t55 50t30.5 73.5t20 87l113 586h389l-129 -667q-45 -219 -182 -312.5t-242 -125t-201 -31.5z" />
    <glyph glyph-name="omegatonos" unicode="&#x3ce;" horiz-adv-x="1771" 
d="M1135 427q0 -114 92 -114q89 0 142.5 104.5t53.5 205.5q0 137 -137 172l66 342q202 0 330 -112.5t128 -313.5q0 -318 -168.5 -524.5t-447.5 -206.5q-145 0 -212 61t-83 147q-131 -208 -373 -208q-195 0 -296 105t-101 279t51 311.5t141.5 239t216.5 161t275 61.5
l-65 -342q-112 -34 -173 -137t-61 -224t100 -121q116 0 142 99.5t35 138.5l28 154h361l-29 -154q-16 -78 -16 -124zM1204 1204h-227l213 379l414 -33z" />
    <glyph glyph-name="endash" unicode="&#x2013;" horiz-adv-x="1081" 
d="M1077 522h-917l61 320h918z" />
    <glyph glyph-name="emdash" unicode="&#x2014;" horiz-adv-x="1839" 
d="M1837 522h-1675l61 320h1675z" />
    <glyph glyph-name="quoteleft" unicode="&#x2018;" horiz-adv-x="581" 
d="M172 985q0 201 119 320.5t340 130.5l35 -158q-111 0 -157 -27.5t-60 -72.5q66 -12 105.5 -62t39.5 -108q0 -101 -69 -172.5t-171 -75.5q-80 0 -131 55t-51 170z" />
    <glyph glyph-name="quoteright" unicode="&#x2019;" horiz-adv-x="581" 
d="M466 1446q64 0 116.5 -55.5t52.5 -169.5q0 -201 -118 -321t-341 -130l-35 156q107 0 144 21.5t51 39t22 39.5q-66 14 -105.5 63.5t-39.5 105.5t18.5 99t50 77t76 54.5t108.5 20.5z" />
    <glyph glyph-name="quotesinglbase" unicode="&#x201a;" horiz-adv-x="581" 
d="M518 204q0 -208 -132 -338t-361 -142l-25 157q111 0 159 29t68 72q-61 14 -97 58t-36 100q0 107 76.5 182t179.5 79q76 0 122 -48t46 -149z" />
    <glyph glyph-name="quotedblleft" unicode="&#x201c;" horiz-adv-x="1120" 
d="M172 985q0 201 119 320.5t340 130.5l35 -158q-111 0 -157 -27.5t-60 -72.5q66 -12 105.5 -62t39.5 -108q0 -101 -69 -172.5t-171 -75.5q-80 0 -131 55t-51 170zM715 985q0 203 118.5 321.5t342.5 129.5l32 -158q-111 0 -156.5 -27.5t-60.5 -72.5q66 -12 107 -63t41 -109
q0 -105 -73.5 -173.5t-161.5 -70.5q-87 -2 -138 53t-51 170z" />
    <glyph glyph-name="quotedblright" unicode="&#x201d;" horiz-adv-x="1120" 
d="M1178 1221q0 -201 -118 -321t-341 -130l-35 156q184 0 217 100q-66 14 -105.5 63.5t-39.5 116.5q0 106 74 173t160 67q85 0 136.5 -55.5t51.5 -169.5zM466 1446q64 0 116.5 -55.5t52.5 -169.5q0 -201 -118 -321t-341 -130l-35 156q107 0 144 21.5t51 39t22 39.5
q-66 14 -105.5 63.5t-39.5 105.5t18.5 99t50 77t76 54.5t108.5 20.5z" />
    <glyph glyph-name="quotedblbase" unicode="&#x201e;" horiz-adv-x="1118" 
d="M1055 204q0 -207 -132.5 -337.5t-361.5 -142.5l-24 157q111 0 158.5 29t68.5 72q-61 14 -97 58t-36 100q0 106 75.5 181.5t180.5 79.5q76 0 122 -48t46 -149zM518 204q0 -208 -132 -338t-361 -142l-25 157q111 0 159 29t68 72q-61 14 -97 58t-36 100q0 107 76.5 182
t179.5 79q76 0 122 -48t46 -149z" />
    <glyph glyph-name="dagger" unicode="&#x2020;" horiz-adv-x="839" 
d="M936 1049l-207 12l-47 -2l-49 -246l-43 -287h-180l67 287l47 246h-43l-215 -10l33 178l213 -10h41l33 217h180l-51 -217h43l213 12z" />
    <glyph glyph-name="daggerdbl" unicode="&#x2021;" horiz-adv-x="880" 
d="M571 373h43l215 10l-34 -178l-211 10h-43l-31 -215h-178l51 215h-43l-215 -12l35 180l209 -10h45l22 119l33 229h2l55 229l23 119h-43l-215 -10l35 178l209 -10h43l32 217h181l-54 -217h43l215 12l-34 -180l-211 12l-43 -2l-23 -119l-35 -229l-57 -229z" />
    <glyph glyph-name="bullet" unicode="&#x2022;" 
d="M323 506.5q-79 80.5 -79 195.5q8 136 101 225t213 89t199 -79t79 -194q-8 -137 -100 -227t-213 -90t-200 80.5z" />
    <glyph glyph-name="ellipsis" unicode="&#x2026;" horiz-adv-x="1720" 
d="M1267.5 43.5q-57.5 63.5 -48.5 149.5q4 85 70 147.5t155 62.5t145.5 -60t50.5 -150t-71 -151.5t-154.5 -61.5t-147 63.5zM694.5 43q-57.5 63 -51.5 149t72.5 148.5t155 62.5t145.5 -60.5t51 -149.5t-71 -151t-154.5 -62t-147 63zM70 191q6 87 72 149.5t155 62.5
t146 -60.5t51 -150.5t-71.5 -151t-154 -61t-146.5 62t-52 149z" />
    <glyph glyph-name="perthousand" unicode="&#x2030;" horiz-adv-x="2652" 
d="M2296 555q-69 0 -114.5 -69.5t-45.5 -132.5q0 -62 25.5 -97t63.5 -35q68 0 114.5 67t46.5 132t-25.5 100t-64.5 35zM1882 299q0 211 136 353.5t321 142.5q133 0 218 -85t85 -257t-131.5 -322.5t-329.5 -150.5q-133 0 -216 82.5t-83 236.5zM1485 555q-69 0 -114.5 -69.5
t-45.5 -132.5q0 -62 25.5 -97t63.5 -35q68 0 114.5 67t46.5 132t-25.5 100t-64.5 35zM1831 471q0 -191 -132.5 -341t-328.5 -150q-133 0 -216 82.5t-83 236.5q0 211 136 353.5t321 142.5q133 0 218 -85t85 -239zM661 1225q-70 0 -114.5 -69.5t-44.5 -132.5q0 -62 25.5 -97
t63.5 -35q68 0 114.5 66.5t46.5 131.5q0 66 -26 101t-65 35zM1008 1141q0 -192 -132.5 -342t-328.5 -150q-133 0 -216 83t-83 237q0 209 134 352t323 143q133 0 218 -84.5t85 -238.5zM1802 1436l-1267 -1436h-277l1268 1436h276z" />
    <glyph glyph-name="guilsinglleft" unicode="&#x2039;" horiz-adv-x="731" 
d="M145 545l465 532l211 -182l-334 -350l199 -348l-283 -185z" />
    <glyph glyph-name="guilsinglright" unicode="&#x203a;" horiz-adv-x="731" 
d="M291 12l-213 185l334 348l-199 350l285 182l256 -532z" />
    <glyph glyph-name="fraction" unicode="&#x2044;" horiz-adv-x="1026" 
d="M1085 1552h324l-1294 -1753h-324z" />
    <glyph glyph-name="Euro" unicode="&#x20ac;" horiz-adv-x="1441" 
d="M884 338q107 0 164.5 33t118.5 106l240 -227q-106 -133 -252.5 -201.5t-284.5 -68.5q-257 0 -413.5 135t-186.5 377h-168l21 174h143q4 27 6 54.5t9 53.5h-144l21 174h168q88 240 277.5 377t422.5 137q164 0 293 -69.5t205 -200.5l-297 -229q-40 68 -92 104.5t-135 36.5
q-151 0 -248 -156h290l-20 -174h-340q-8 -27 -10 -54.5t-4 -53.5h340l-21 -174h-291q27 -72 76.5 -113t111.5 -41z" />
    <glyph glyph-name="uni2117" unicode="&#x2117;" horiz-adv-x="1699" 
 />
    <glyph glyph-name="trademark" unicode="&#x2122;" horiz-adv-x="1423" 
d="M1618 1432l-123 -639h-176l51 266l-201 -205l-120 205l-52 -266h-176l123 639h84l191 -324l315 324h84zM817 1290h-188l-97 -497h-176l97 497h-191l27 142h555z" />
    <glyph glyph-name="Omega" unicode="&#x2126;" horiz-adv-x="1697" 
d="M176 711q0 137 58.5 280.5t232.5 306t588 162.5q309 0 489 -150t180 -415q0 -207 -77.5 -337t-233.5 -222h223l-51 -336h-661l51 346q233 83 288.5 232.5t55.5 221.5q0 138 -80.5 221t-250.5 83t-294.5 -139.5t-124.5 -327.5q0 -96 51.5 -176t165.5 -115l-51 -346h-661
l51 336h219q-168 107 -168 375z" />
    <glyph glyph-name="partialdiff" unicode="&#x2202;" horiz-adv-x="1355" 
d="M601 338q48 -57 134 -57t157 58t87 139t-32.5 138.5t-135.5 57.5q-86 0 -155.5 -57.5t-86 -139.5t31.5 -139zM412 1370q180 94 482 94t448 -196.5t55 -614.5q-53 -291 -250 -483.5t-439 -192.5q-263 0 -419 125t-109 349q45 245 215.5 366t341.5 121q94 0 172 -34
t119 -81q25 108 2.5 162.5t-62.5 89.5t-102 50q-94 23 -200.5 -2.5t-149.5 -47.5z" />
    <glyph glyph-name="Delta" unicode="&#x2206;" horiz-adv-x="1607" 
d="M872 1444h383l314 -1444h-1573zM965 965l-359 -629h471z" />
    <glyph glyph-name="product" unicode="&#x220f;" horiz-adv-x="1560" 
d="M1718 1444l-346 -1774h-387l281 1444h-508l-281 -1444h-387l346 1774h1282z" />
    <glyph glyph-name="summation" unicode="&#x2211;" horiz-adv-x="1433" 
d="M1544 1114h-641l305 -557l-520 -557h641l-65 -330h-1211l35 174l666 713l-389 713l34 174h1211z" />
    <glyph glyph-name="minus" unicode="&#x2212;" horiz-adv-x="1081" 
d="M1098 522h-918l62 320h917z" />
    <glyph glyph-name="radical" unicode="&#x221a;" horiz-adv-x="1744" 
d="M2363 1874l-292 -430l-955 -1444h-180l-309 1141h-332l59 303h623l188 -842l838 1272h360z" />
    <glyph glyph-name="infinity" unicode="&#x221e;" horiz-adv-x="1773" 
d="M1330 625q60 0 102.5 28.5t56.5 98t-17.5 98.5t-91.5 29t-106.5 -37t-102.5 -90q33 -53 66 -90t93 -37zM686 625q60 0 107 36.5t100 90.5q-39 66 -73.5 96.5t-88.5 30.5q-55 0 -97 -29t-56.5 -98.5t17 -98t91.5 -28.5zM993 555q-203 -211 -379 -211q-185 0 -283.5 105.5
t-60.5 281.5q35 193 165 310.5t286 117.5q117 0 198.5 -53t149.5 -158q211 211 384 211q185 0 283.5 -104.5t59.5 -282.5q-34 -193 -164 -310.5t-312 -117.5q-181 0 -327 211z" />
    <glyph glyph-name="integral" unicode="&#x222b;" horiz-adv-x="1179" 
d="M453 1200q26 172 138 268.5t252 96.5q140 1 204 -17q63 -18 92 -30l-43 -275q-92 6 -144.5 3t-80 -27.5t-39 -75.5t-25.5 -137l-162 -1033q-27 -172 -140.5 -268t-253.5 -96q-139 0 -216 22l47 295q63 -2 98 7.5t55.5 37t30.5 74.5t23 123z" />
    <glyph glyph-name="approxequal" unicode="&#x2248;" horiz-adv-x="1282" 
d="M545 705q66 0 120 -18.5t105 -40t101.5 -39t107.5 -17.5q132 0 256 96l49 -285q-156 -122 -323 -122q-57 0 -107.5 17t-102 38.5t-105.5 40t-120 18.5q-130 0 -284 -90l-47 270q198 132 350 132zM657 1284q66 0 120 -18.5t105.5 -40t102 -39t107.5 -17.5q128 0 256 97
l49 -285q-157 -123 -324 -123q-57 0 -107.5 17.5t-101.5 39t-105 40t-120 18.5q-123 0 -285 -90l-47 270q196 131 350 131z" />
    <glyph glyph-name="notequal" unicode="&#x2260;" horiz-adv-x="1308" 
d="M987 1204q198 283 201 283h272l-200 -283h129l-64 -321h-293l-180 -258h424l-64 -322h-587l-187 -264h-274q54 77 98.5 141t85.5 123h-141l63 322h308l180 258h-439l64 321h604z" />
    <glyph glyph-name="lessequal" unicode="&#x2264;" horiz-adv-x="1310" 
d="M1380 1188l-540 -225l454 -224l-71 -362l-920 497l33 177l1116 499zM1151 0h-1018l62 319h1017z" />
    <glyph glyph-name="greaterequal" unicode="&#x2265;" horiz-adv-x="1286" 
d="M276 739l541 224l-455 225l72 362l920 -499l-33 -177l-1116 -497zM1151 0h-1018l62 319h1017z" />
    <glyph glyph-name="lozenge" unicode="&#x25ca;" horiz-adv-x="1042" 
d="M768 772l-59 203l-140 -203l62 -203zM1118 772l-532 -772h-133l-232 772l531 772h133z" />
    <glyph glyph-name="intelligentdesign" horiz-adv-x="1980" 
d="M383 -248v2h-2l-16 -69h-11l-26 86h8l20 -68q0 -2 1 -3t1 -3l19 74h10l16 -66q0 -4 1.5 -5t1.5 -3l22 74h10l-28 -86h-9l-16 59q-2 2 -2 8zM279 -305q2 0 2 8l20 68h10l-28 -86h-9l-16 59q-2 2 -2 8v2q-2 0 -2 -2v-8l-16 -59h-11l-26 86h8l20 -68l2 -6v-2q2 0 2 3t3 7
l16 66h8l16 -66l3 -8v-2zM133 -248v2h-2l-16 -69h-11l-26 86h8l20 -68q0 -2 1.5 -3t1.5 -3l18 74h10l17 -66q0 -4 1 -5t1 -3l22 74h10l-28 -86h-8l-17 59q-2 2 -2 8zM1653 -231h10v-86h-10l-45 67q-4 4 -4 6v-73h-9v86h9l45 -64l4 -4v68zM1137 -231h10v-86h-10l-45 67
q-4 4 -5 6v-73h-8v86h8l46 -64l4 -8v72zM569 -231h9v-86h-9l-47 67q-2 2 -2 3t-2 3v-73h-8v86h8l45 -64q4 -4 4 -5t2 -3v72zM1426 -309q17 0 18 16q0 11 -20 19t-21 22q0 23 22 23q14 0 23 -15l-6 -4q-6 10 -18 10t-13 -14q1 -10 21 -16q23 -12 22 -25q0 -25 -25 -25t-32 19
l6 4q6 -14 23 -14zM1268 -307q32 0 32 34t-32 33h-17v-67h17zM1268 -231q43 0 43 -46q0 -17 -19 -32q-16 -8 -24 -8h-25v86h25zM1847 -264q0 10 -7 17t-17 7h-13v-51h13q24 6 24 27zM1800 -231h23q14 0 20 -9q12 -10 12 -26t-7 -20t-11 -9l21 -22h-13l-18 20q-2 -2 -4 -2
h-13v-18h-10v86zM893 -231v-86h-8v86h8zM1481 -231v-86h-8v86h8zM487 -231v-86h-8v86h8zM825 -231v-76h41v-10h-49v86h8zM758 -231v-76h41v-10h-49v86h8zM1548 -317q-24 0 -36.5 12t-12.5 30.5t12.5 32t31 13.5t32.5 -15l-6 -6q-9 12 -25 12t-26.5 -10t-10.5 -25t9.5 -25.5
t26 -10.5t24.5 8v10h-21v8h31v-22q-5 -12 -29 -12zM960 -317q-24 0 -36.5 12t-12.5 30.5t13.5 32t30.5 13.5t32 -15l-6 -6q-9 12 -25 12t-26 -10t-10 -25t10 -25.5t25 -10.5t26 8v10h-20v8h28v-22q-5 -12 -29 -12zM1747 -238q-35 0 -35 -36q0 -14 9.5 -24.5t25.5 -10.5t25 8
v10h-21v8h31v-22q-12 -12 -32 -12t-34 12t-14 30.5t13.5 32t31.5 13.5t33 -15l-8 -6q-10 12 -25 12zM1163 -240v9h62v-9h-27v-77h-8v77h-27zM596 -240v9h61v-9h-26v-77h-8v77h-27zM1061 -231v-9h-45v-36h41v-9h-41v-22h45v-10h-53v86h53zM731 -231v-9h-45v-36h41v-9h-41v-22
h45v-10h-53v86h53zM1380 -231v-9h-45v-36h41v-9h-41v-22h47v-10h-55v86h53zM1681 -310q-1 7 7 7t8 -7t-8 -7t-7 7zM442 -310q0 7 8 7t7 -7q1 -7 -7 -7t-8 7zM1311 184h-27v-65h23q23 0 32 18l2 15q0 32 -30 32zM1319 225q74 0 74 -75q0 -34 -25 -52q10 -10 31 -20l-19 -43
q-37 14 -65 49h-31v-39h-49v180h84zM987 225h49v-180h-22l-96 92v-92h-50v180h23l96 -94v94zM459 184h-37v-65h35v-35h-35v-39h-49v39h-11v35h11v106h86v-41zM725 129q0 -43 35 -43t35 43v94h49v-106q0 -54 -49 -70q-16 -6 -35 -6q-68 0 -82 57l-2 19v106h49v-94zM1114 88
h14q16 0 27.5 13.5t11.5 32.5t-12 32.5t-29 13.5h-12v-92zM1217 135q0 -37 -25 -62.5t-59 -27.5h-68v180h61q39 0 65 -26.5t26 -63.5zM564 86q19 0 32.5 14.5t13.5 35t-13 33.5t-33 13t-33 -13t-13 -33.5t13.5 -35t32.5 -14.5zM565 227q41 0 69 -26.5t28 -65.5t-28 -66.5
t-69 -27.5t-68.5 27.5t-27.5 66.5t27.5 65.5t68.5 26.5zM1503 45h-49v59l-68 119h56l37 -65l37 65h55l-68 -119v-59zM1012 965h229q0 98 -65.5 175t-163.5 93v-268zM1241 877h-229v-269q97 16 163 93t66 176zM924 965v274h-142v-274h142zM924 602v275h-142v-275h142z
M1548 920q0 -118 -64.5 -212t-168.5 -135q-41 -104 -135.5 -168.5t-213 -64.5t-211.5 64.5t-137 168.5q-104 41 -168.5 135.5t-64.5 212.5t64.5 212t168.5 135q43 104 136.5 168.5t212 64.5t212 -64.5t136.5 -168.5q104 -41 168.5 -135.5t64.5 -212.5z" />
    </font>
</defs>
</svg>
